<?xml version="1.0" encoding="utf-8"?>
<svg version="1.1" xmlns:xlink="http://www.w3.org/1999/xlink" width="44px" height="44px" xmlns="http://www.w3.org/2000/svg">
  <g transform="matrix(1 0 0 1 -1510 -535 )">
    <path d="M 1532 535  C 1544.32 535  1554 544.68  1554 557  C 1554 569.32  1544.32 579  1532 579  C 1519.68 579  1510 569.32  1510 557  C 1510 544.68  1519.68 535  1532 535  Z " fill-rule="nonzero" fill="#ffffff" stroke="none" />
    <path d="M 1532 535.5  C 1544.04 535.5  1553.5 544.96  1553.5 557  C 1553.5 569.04  1544.04 578.5  1532 578.5  C 1519.96 578.5  1510.5 569.04  1510.5 557  C 1510.5 544.96  1519.96 535.5  1532 535.5  Z " stroke-width="1" stroke="#ffffff" fill="none" />
  </g>
</svg>