<?xml version="1.0" encoding="utf-8"?>
<svg version="1.1" xmlns:xlink="http://www.w3.org/1999/xlink" width="72px" height="72px" xmlns="http://www.w3.org/2000/svg">
  <g transform="matrix(1 0 0 1 -1496 -521 )">
    <path d="M 1532 521  C 1552.16 521  1568 536.84  1568 557  C 1568 577.16  1552.16 593  1532 593  C 1511.84 593  1496 577.16  1496 557  C 1496 536.84  1511.84 521  1532 521  Z " fill-rule="nonzero" fill="#e9e9e9" stroke="none" />
    <path d="M 1532 521.5  C 1551.88 521.5  1567.5 537.12  1567.5 557  C 1567.5 576.88  1551.88 592.5  1532 592.5  C 1512.12 592.5  1496.5 576.88  1496.5 557  C 1496.5 537.12  1512.12 521.5  1532 521.5  Z " stroke-width="1" stroke="#ffffff" fill="none" />
  </g>
</svg>