<?xml version="1.0" encoding="utf-8"?>
<svg version="1.1" xmlns:xlink="http://www.w3.org/1999/xlink" width="72px" height="72px" xmlns="http://www.w3.org/2000/svg">
  <g transform="matrix(1 0 0 1 -1496 -521 )">
    <path d="M 1528.93164339028 521.632851574463  C 1529.95195577199 521.544332075011  1530.97569884216 521.5  1532 521.5  C 1551.60610861899 521.5  1567.5 537.393891381007  1567.5 557  C 1567.5 576.606108618993  1551.60610861899 592.5  1532 592.5  C 1512.39389138101 592.5  1496.5 576.606108618993  1496.5 557  C 1496.5 550.935197654085  1498.05371061054 544.974383527166  1501.00914695025 539.684772918509  L 1531.75 557.433012701892  A 0.5 0.5 0 0 0 1532.49747076072 556.949772097104 L 1528.93164339024 521.632851574466  Z " fill-rule="nonzero" fill="#0096fa" stroke="none" />
    <path d="M 1528.93164339028 521.632851574463  C 1529.95195577199 521.544332075011  1530.97569884216 521.5  1532 521.5  C 1551.60610861899 521.5  1567.5 537.393891381007  1567.5 557  C 1567.5 576.606108618993  1551.60610861899 592.5  1532 592.5  C 1512.39389138101 592.5  1496.5 576.606108618993  1496.5 557  C 1496.5 550.935197654085  1498.05371061054 544.974383527166  1501.00914695025 539.684772918509  L 1531.75 557.433012701892  A 0.5 0.5 0 0 0 1532.49747076072 556.949772097104 L 1528.93164339024 521.632851574466  Z " stroke-width="1" stroke="#ffffff" fill="none" />
  </g>
</svg>