<?xml version="1.0" encoding="utf-8"?>
<svg version="1.1" xmlns:xlink="http://www.w3.org/1999/xlink" width="30px" height="28px" xmlns="http://www.w3.org/2000/svg">
  <g transform="matrix(1 0 0 1 -25 -1152 )">
    <path d="M 19.82421875 23.1692708333333  C 19.94140625 23.0598958333333  20 22.9201388888889  20 22.75  L 20 19.8333333333333  C 20 19.6631944444444  19.94140625 19.5234375  19.82421875 19.4140625  C 19.70703125 19.3046875  19.5572916666667 19.25  19.375 19.25  L 17.5 19.25  L 17.5 9.91666666666667  C 17.5 9.74652777777778  17.44140625 9.60677083333333  17.32421875 9.49739583333333  C 17.20703125 9.38802083333333  17.0572916666667 9.33333333333333  16.875 9.33333333333333  L 10.625 9.33333333333333  C 10.4427083333333 9.33333333333333  10.29296875 9.38802083333333  10.17578125 9.49739583333333  C 10.05859375 9.60677083333333  10 9.74652777777778  10 9.91666666666667  L 10 12.8333333333333  C 10 13.0034722222222  10.05859375 13.1432291666667  10.17578125 13.2526041666667  C 10.29296875 13.3619791666667  10.4427083333333 13.4166666666667  10.625 13.4166666666667  L 12.5 13.4166666666667  L 12.5 19.25  L 10.625 19.25  C 10.4427083333333 19.25  10.29296875 19.3046875  10.17578125 19.4140625  C 10.05859375 19.5234375  10 19.6631944444444  10 19.8333333333333  L 10 22.75  C 10 22.9201388888889  10.05859375 23.0598958333333  10.17578125 23.1692708333333  C 10.29296875 23.2786458333333  10.4427083333333 23.3333333333333  10.625 23.3333333333333  L 19.375 23.3333333333333  C 19.5572916666667 23.3333333333333  19.70703125 23.2786458333333  19.82421875 23.1692708333333  Z M 17.32421875 6.8359375  C 17.44140625 6.7265625  17.5 6.58680555555555  17.5 6.41666666666667  L 17.5 3.5  C 17.5 3.32986111111111  17.44140625 3.19010416666667  17.32421875 3.08072916666667  C 17.20703125 2.97135416666667  17.0572916666667 2.91666666666667  16.875 2.91666666666667  L 13.125 2.91666666666667  C 12.9427083333333 2.91666666666667  12.79296875 2.97135416666667  12.67578125 3.08072916666667  C 12.55859375 3.19010416666667  12.5 3.32986111111111  12.5 3.5  L 12.5 6.41666666666667  C 12.5 6.58680555555555  12.55859375 6.7265625  12.67578125 6.8359375  C 12.79296875 6.9453125  12.9427083333333 7  13.125 7  L 16.875 7  C 17.0572916666667 7  17.20703125 6.9453125  17.32421875 6.8359375  Z M 27.98828125 6.97265625  C 29.3294270833333 9.11762152777778  30 11.4600694444444  30 14  C 30 16.5399305555556  29.3294270833333 18.8823784722222  27.98828125 21.02734375  C 26.6471354166667 23.1723090277778  24.8274739583333 24.8706597222222  22.529296875 26.1223958333333  C 20.2311197916667 27.3741319444444  17.7213541666667 28  15 28  C 12.2786458333333 28  9.76888020833333 27.3741319444444  7.470703125 26.1223958333333  C 5.17252604166667 24.8706597222222  3.35286458333333 23.1723090277778  2.01171875 21.02734375  C 0.670572916666667 18.8823784722222  0 16.5399305555556  0 14  C 0 11.4600694444444  0.670572916666667 9.11762152777778  2.01171875 6.97265625  C 3.35286458333333 4.82769097222222  5.17252604166667 3.12934027777778  7.470703125 1.87760416666667  C 9.76888020833333 0.625868055555553  12.2786458333333 0  15 0  C 17.7213541666667 0  20.2311197916667 0.625868055555553  22.529296875 1.87760416666667  C 24.8274739583333 3.12934027777778  26.6471354166667 4.82769097222222  27.98828125 6.97265625  Z " fill-rule="nonzero" fill="#000000" stroke="none" transform="matrix(1 0 0 1 25 1152 )" />
  </g>
</svg>