<?xml version="1.0" encoding="utf-8"?>
<svg version="1.1" xmlns:xlink="http://www.w3.org/1999/xlink" width="12px" height="12px" viewBox="130 88  12 12" xmlns="http://www.w3.org/2000/svg">
  <path d="M 136 88  C 139.36 88  142 90.64  142 94  C 142 97.36  139.36 100  136 100  C 132.64 100  130 97.36  130 94  C 130 90.64  132.64 88  136 88  Z " fill-rule="nonzero" fill="#ffffff" stroke="none" />
  <path d="M 136 88.5  C 139.08 88.5  141.5 90.92  141.5 94  C 141.5 97.08  139.08 99.5  136 99.5  C 132.92 99.5  130.5 97.08  130.5 94  C 130.5 90.92  132.92 88.5  136 88.5  Z " stroke-width="1" stroke="#797979" fill="none" />
  <path d="M 136 97  C 134.32 97  133 95.68  133 94  C 133 92.32  134.32 91  136 91  C 137.68 91  139 92.32  139 94  C 139 95.68  137.68 97  136 97  " fill-rule="nonzero" fill="#797979" stroke="none" />
</svg>