<?xml version="1.0" encoding="utf-8"?>
<svg version="1.1" xmlns:xlink="http://www.w3.org/1999/xlink" width="34px" height="36px" xmlns="http://www.w3.org/2000/svg">
  <g transform="matrix(1 0 0 1 -373 -288 )">
    <path d="M 28.0455729166667 19.0546875  C 28.3111979166667 18.7734375  28.4440104166667 18.421875  28.4440104166667 18  C 28.4440104166667 17.578125  28.3111979166667 17.2265625  28.0455729166667 16.9453125  L 26.03125 14.8125  L 18.0182291666667 6.328125  C 17.7526041666667 6.046875  17.4205729166667 5.90625  17.0221354166667 5.90625  C 16.6236979166667 5.90625  16.2916666666667 6.046875  16.0260416666667 6.328125  L 14.01171875 8.4609375  C 13.74609375 8.7421875  13.61328125 9.09375  13.61328125 9.515625  C 13.61328125 9.9375  13.74609375 10.2890625  14.01171875 10.5703125  L 18.1953125 15  L 7.08333333333333 15  C 6.69965277777778 15  6.36762152777778 15.1484375  6.08723958333333 15.4453125  C 5.80685763888889 15.7421875  5.66666666666667 16.09375  5.66666666666667 16.5  L 5.66666666666667 19.5  C 5.66666666666667 19.90625  5.80685763888889 20.2578125  6.08723958333333 20.5546875  C 6.36762152777778 20.8515625  6.69965277777778 21  7.08333333333333 21  L 18.1953125 21  L 14.01171875 25.4296875  C 13.7313368055556 25.7265625  13.5911458333333 26.078125  13.5911458333333 26.484375  C 13.5911458333333 26.890625  13.7313368055556 27.2421875  14.01171875 27.5390625  L 16.0260416666667 29.671875  C 16.2916666666667 29.953125  16.6236979166667 30.09375  17.0221354166667 30.09375  C 17.4205729166667 30.09375  17.7526041666667 29.953125  18.0182291666667 29.671875  L 26.03125 21.1875  L 28.0455729166667 19.0546875  Z M 31.7200520833333 8.96484375  C 33.2400173611111 11.72265625  34 14.734375  34 18  C 34 21.265625  33.2400173611111 24.27734375  31.7200520833333 27.03515625  C 30.2000868055556 29.79296875  28.1378038194444 31.9765625  25.533203125 33.5859375  C 22.9286024305556 35.1953125  20.0842013888889 36  17 36  C 13.9157986111111 36  11.0713975694444 35.1953125  8.466796875 33.5859375  C 5.86219618055556 31.9765625  3.79991319444444 29.79296875  2.27994791666667 27.03515625  C 0.759982638888889 24.27734375  0 21.265625  0 18  C 0 14.734375  0.759982638888889 11.72265625  2.27994791666667 8.96484375  C 3.79991319444444 6.20703125  5.86219618055556 4.0234375  8.466796875 2.4140625  C 11.0713975694444 0.804687499999997  13.9157986111111 0  17 0  C 20.0842013888889 0  22.9286024305556 0.804687499999997  25.533203125 2.4140625  C 28.1378038194444 4.0234375  30.2000868055556 6.20703125  31.7200520833333 8.96484375  Z " fill-rule="nonzero" fill="#1abc9c" stroke="none" transform="matrix(1 0 0 1 373 288 )" />
  </g>
</svg>