<?xml version="1.0" encoding="utf-8"?>
<svg version="1.1" xmlns:xlink="http://www.w3.org/1999/xlink" width="30px" height="30px" xmlns="http://www.w3.org/2000/svg">
  <g transform="matrix(1 0 0 1 -163 -14 )">
    <path d="M 178 15  C 185.84 15  192 21.16  192 29  C 192 36.84  185.84 43  178 43  C 170.16 43  164 36.84  164 29  C 164 21.16  170.16 15  178 15  Z " fill-rule="nonzero" fill="#ffffff" stroke="none" />
    <path d="M 178 15  C 185.84 15  192 21.16  192 29  C 192 36.84  185.84 43  178 43  C 170.16 43  164 36.84  164 29  C 164 21.16  170.16 15  178 15  Z " stroke-width="2" stroke="#1abc9c" fill="none" />
  </g>
</svg>