<?xml version="1.0" encoding="utf-8"?>
<svg version="1.1" xmlns:xlink="http://www.w3.org/1999/xlink" width="42px" height="40px" xmlns="http://www.w3.org/2000/svg">
  <g transform="matrix(1 0 0 1 -332 -323 )">
    <path d="M 34.48046875 22.8385416666667  C 34.8268229166667 22.5086805555556  35 22.1180555555556  35 21.6666666666667  L 35 18.3333333333333  C 35 17.8819444444444  34.8268229166667 17.4913194444444  34.48046875 17.1614583333333  C 34.1341145833333 16.8315972222222  33.7239583333333 16.6666666666667  33.25 17  L 19.5234375 17  L 24.69140625 11.7447916666667  C 25.0377604166667 11.4149305555556  25.2109375 11.0243055555556  25.2109375 10.5729166666667  C 25.2109375 10.1215277777778  25.0377604166667 9.73090277777777  24.69140625 9.40104166666666  L 22.203125 7.03125  C 21.875 6.71875  21.46484375 6.5625  20.97265625 6.5625  C 20.48046875 6.5625  20.0703125 6.71875  19.7421875 7.03125  L 9.84375 16.4583333333333  L 7.35546875 18.828125  C 7.02734375 19.140625  6.86328125 19.53125  6.86328125 20  C 6.86328125 20.46875  7.02734375 20.859375  7.35546875 21.171875  L 9.84375 23.5416666666667  L 19.7421875 32.96875  C 20.0703125 33.28125  20.48046875 33.4375  20.97265625 33.4375  C 21.46484375 33.4375  21.875 33.28125  22.203125 32.96875  L 24.69140625 30.5989583333333  C 25.01953125 30.2864583333333  25.18359375 29.8958333333333  25.18359375 29.4270833333333  C 25.18359375 28.9583333333333  25.01953125 28.5677083333333  24.69140625 28.2552083333333  L 19.5234375 23  L 33.25 23  C 33.7239583333333 23.3333333333333  34.1341145833333 23.1684027777778  34.48046875 22.8385416666667  Z M 39.18359375 9.9609375  C 41.0611979166667 13.0251736111111  42 16.3715277777778  42 20  C 42 23.6284722222222  41.0611979166667 26.9748263888889  39.18359375 30.0390625  C 37.3059895833333 33.1032986111111  34.7584635416667 35.5295138888889  31.541015625 37.3177083333333  C 28.3235677083333 39.1059027777778  24.8098958333333 40  21 40  C 17.1901041666667 40  13.6764322916667 39.1059027777778  10.458984375 37.3177083333333  C 7.24153645833333 35.5295138888889  4.69401041666667 33.1032986111111  2.81640625 30.0390625  C 0.938802083333333 26.9748263888889  0 23.6284722222222  0 20  C 0 16.3715277777778  0.938802083333333 13.0251736111111  2.81640625 9.9609375  C 4.69401041666667 6.89670138888889  7.24153645833333 4.47048611111111  10.458984375 2.68229166666667  C 13.6764322916667 0.894097222222219  17.1901041666667 0  21 0  C 24.8098958333333 0  28.3235677083333 0.894097222222219  31.541015625 2.68229166666667  C 34.7584635416667 4.47048611111111  37.3059895833333 6.89670138888889  39.18359375 9.9609375  Z " fill-rule="nonzero" fill="#1abc9c" stroke="none" transform="matrix(1 0 0 1 332 323 )" />
  </g>
</svg>