<?xml version="1.0" encoding="utf-8"?>
<svg version="1.1" xmlns:xlink="http://www.w3.org/1999/xlink" width="30px" height="30px" xmlns="http://www.w3.org/2000/svg">
  <g transform="matrix(1 0 0 1 -365 -14 )">
    <path d="M 380 15  C 387.84 15  394 21.16  394 29  C 394 36.84  387.84 43  380 43  C 372.16 43  366 36.84  366 29  C 366 21.16  372.16 15  380 15  Z " fill-rule="nonzero" fill="#ffffff" stroke="none" />
    <path d="M 380 15  C 387.84 15  394 21.16  394 29  C 394 36.84  387.84 43  380 43  C 372.16 43  366 36.84  366 29  C 366 21.16  372.16 15  380 15  Z " stroke-width="2" stroke="#2abc9c" fill="none" />
  </g>
</svg>