<?xml version="1.0" encoding="utf-8"?>
<svg version="1.1" xmlns:xlink="http://www.w3.org/1999/xlink" width="9px" height="6px" xmlns="http://www.w3.org/2000/svg">
  <defs>
    <mask fill="white" id="clip188">
      <path d="M 0 3  C 0 4.6568542494  2.0147186259 6  4.5 6  C 6.9852813741 6  9 4.6568542494  9 3  C 9 1.3431457506  6.9852813741 0  4.5 0  C 2.0147186259 0  0 1.3431457506  0 3  Z " fill-rule="evenodd" />
    </mask>
  </defs>
  <g transform="matrix(1 0 0 1 -524 -577 )">
    <path d="M 0 3  C 0 4.6568542494  2.0147186259 6  4.5 6  C 6.9852813741 6  9 4.6568542494  9 3  C 9 1.3431457506  6.9852813741 0  4.5 0  C 2.0147186259 0  0 1.3431457506  0 3  Z " fill-rule="nonzero" fill="#5b8ff9" stroke="none" transform="matrix(1 0 0 1 524 577 )" />
    <path d="M 0 3  C 0 4.6568542494  2.0147186259 6  4.5 6  C 6.9852813741 6  9 4.6568542494  9 3  C 9 1.3431457506  6.9852813741 0  4.5 0  C 2.0147186259 0  0 1.3431457506  0 3  Z " stroke-width="2" stroke="#000000" fill="none" stroke-opacity="0.850980392156863" transform="matrix(1 0 0 1 524 577 )" mask="url(#clip188)" />
  </g>
</svg>