<?xml version="1.0" encoding="utf-8"?>
<svg version="1.1" xmlns:xlink="http://www.w3.org/1999/xlink" width="24px" height="17px" xmlns="http://www.w3.org/2000/svg">
  <g transform="matrix(1 0 0 1 -585 -25 )">
    <path d="M 14.71875 10.42578125  C 15.9831730769231 9.53014823717949  16.6153846153846 8.45232371794872  16.6153846153846 7.19230769230769  C 16.6153846153846 5.93229166666667  15.9831730769231 4.8544671474359  14.71875 3.95883413461538  C 13.4543269230769 3.06320112179487  11.9326923076923 2.61538461538462  10.1538461538462 2.61538461538462  C 8.375 2.61538461538462  6.85336538461539 3.06320112179487  5.58894230769231 3.95883413461538  C 4.32451923076923 4.8544671474359  3.69230769230769 5.93229166666667  3.69230769230769 7.19230769230769  C 3.69230769230769 8.45232371794872  4.32451923076923 9.53014823717949  5.58894230769231 10.42578125  C 6.85336538461539 11.3214142628205  8.375 11.7692307692308  10.1538461538462 11.7692307692308  C 11.9326923076923 11.7692307692308  13.4543269230769 11.3214142628205  14.71875 10.42578125  Z M 23.4663461538462 14.7728365384615  C 23.8221153846154 15.0248397435897  24 15.3313301282051  24 15.6923076923077  C 24 16.0464743589744  23.8173076923077 16.3529647435897  23.4519230769231 16.6117788461538  C 23.0865384615385 16.8705929487179  22.6538461538462 17  22.1538461538462 17  C 21.6346153846154 17  21.2019230769231 16.8705929487179  20.8557692307692 16.6117788461538  L 15.9086538461538 13.1177884615385  C 14.1875 13.9623397435897  12.2692307692308 14.3846153846154  10.1538461538462 14.3846153846154  C 8.77884615384616 14.3846153846154  7.46394230769231 14.1956129807692  6.20913461538461 13.8176081730769  C 4.95432692307692 13.4396033653846  3.87259615384615 12.9287860576923  2.96394230769231 12.28515625  C 2.05528846153846 11.6415264423077  1.33413461538462 10.8753004807692  0.800480769230769 9.98647836538461  C 0.266826923076923 9.09765625  0 8.16626602564102  0 7.19230769230769  C 0 6.21834935897436  0.266826923076923 5.28695913461538  0.800480769230769 4.39813701923077  C 1.33413461538462 3.50931490384615  2.05528846153846 2.74308894230769  2.96394230769231 2.09945913461538  C 3.87259615384615 1.45582932692308  4.95432692307692 0.945012019230769  6.20913461538461 0.567007211538462  C 7.46394230769231 0.189002403846153  8.77884615384616 0  10.1538461538462 0  C 11.5288461538462 0  12.84375 0.189002403846153  14.0985576923077 0.567007211538462  C 15.3533653846154 0.945012019230769  16.4350961538462 1.45582932692308  17.34375 2.09945913461538  C 18.2524038461538 2.74308894230769  18.9735576923077 3.50931490384615  19.5072115384615 4.39813701923077  C 20.0408653846154 5.28695913461538  20.3076923076923 6.21834935897436  20.3076923076923 7.19230769230769  C 20.3076923076923 8.69070512820513  19.7115384615385 10.0494791666667  18.5192307692308 11.2686298076923  L 23.4663461538462 14.7728365384615  Z " fill-rule="nonzero" fill="#000000" stroke="none" transform="matrix(1 0 0 1 585 25 )" />
  </g>
</svg>