<?xml version="1.0" encoding="utf-8"?>
<svg version="1.1" xmlns:xlink="http://www.w3.org/1999/xlink" width="23px" height="18px" xmlns="http://www.w3.org/2000/svg">
  <g transform="matrix(1 0 0 1 -641 -8 )">
    <path d="M 21.9249291784703 0  C 22.3810198300283 0  22.7013692162417 0.166193181818183  22.8859773371105 0.498579545454546  C 23.0705854579792 0.848011363636362  22.9945703493862 1.14630681818182  22.6579320113314 1.39346590909091  L 14.6274787535411 7.69602272727273  L 14.6274787535411 17.1818181818182  C 14.6274787535411 17.5397727272727  14.4157223796034 17.7911931818182  13.992209631728 17.9360795454545  C 13.8510387157696 17.9786931818182  13.7152974504249 18  13.5849858356941 18  C 13.2917847025496 18  13.0474504249292 17.9190340909091  12.8519830028329 17.7571022727273  L 8.68201133144476 14.484375  C 8.47568460812087 14.3224431818182  8.37252124645892 14.1306818181818  8.37252124645892 13.9090909090909  L 8.37252124645892 7.69602272727273  L 0.342067988668555 1.39346590909091  C 0.00542965061378659 1.14630681818182  -0.0705854579792257 0.848011363636362  0.114022662889518 0.498579545454546  C 0.298630783758263 0.166193181818183  0.618980169971671 0  1.07507082152975 0  L 21.9249291784703 0  Z " fill-rule="nonzero" fill="#000000" stroke="none" transform="matrix(1 0 0 1 641 8 )" />
  </g>
</svg>