<?xml version="1.0" encoding="utf-8"?>
<svg version="1.1" xmlns:xlink="http://www.w3.org/1999/xlink" width="22px" height="16px" xmlns="http://www.w3.org/2000/svg">
  <g transform="matrix(1 0 0 1 -59 -4 )">
    <path d="M 5.96105610561056 4.33531353135314  C 6.32409240924092 4.07128712871287  6.50561056105611 3.75269526952695  6.50561056105611 3.37953795379538  C 6.50561056105611 3.0063806380638  6.32409240924092 2.68778877887789  5.96105610561056 2.42376237623762  C 5.5980198019802 2.15973597359736  5.15995599559956 2.02772277227723  4.64686468646865 2.02772277227723  C 4.13377337733773 2.02772277227723  3.6957095709571 2.15973597359736  3.33267326732673 2.42376237623762  C 2.96963696369637 2.68778877887789  2.78811881188119 3.0063806380638  2.78811881188119 3.37953795379538  C 2.78811881188119 3.75269526952695  2.96963696369637 4.07128712871287  3.33267326732673 4.33531353135314  C 3.6957095709571 4.5993399339934  4.13377337733773 4.73135313531353  4.64686468646865 4.73135313531353  C 5.15995599559956 4.73135313531353  5.5980198019802 4.5993399339934  5.96105610561056 4.33531353135314  Z M 21.4627062706271 8.5016501650165  C 21.820902090209 8.77623762376238  22 9.0965896589659  22 9.46270627062706  C 22 9.83586358635863  21.820902090209 10.152695269527  21.4627062706271 10.413201320132  L 14.3326732673267 15.6092409240924  C 13.9551155115512 15.8697469746975  13.5146314631463 16  13.0112211221122 16  C 12.4981298129813 16  12.0624862486249 15.8697469746975  11.7042904290429 15.6092409240924  L 1.32145214521452 8.04752475247525  C 0.953575357535754 7.78701870187019  0.641364136413641 7.43146314631463  0.384818481848185 6.98085808580858  C 0.128272827282728 6.53025302530253  0 6.11837183718372  0 5.74521452145214  L 0 1.35181518151815  C 0 0.985698569856986  0.183938393839384 0.668866886688669  0.551815181518152 0.4013201320132  C 0.91969196919692 0.133773377337732  1.35533553355336 0  1.85874587458746 0  L 7.8996699669967 0  C 8.41276127612761 0  8.97909790979098 0.093289328932892  9.5986798679868 0.27986798679868  C 10.2182618261826 0.466446644664465  10.7119911991199 0.693509350935091  11.0798679867987 0.961056105610561  L 21.4627062706271 8.5016501650165  Z " fill-rule="nonzero" fill="#000000" stroke="none" transform="matrix(1 0 0 1 59 4 )" />
  </g>
</svg>