<?xml version="1.0" encoding="utf-8"?>
<svg version="1.1" xmlns:xlink="http://www.w3.org/1999/xlink" width="21px" height="11px" xmlns="http://www.w3.org/2000/svg">
  <g transform="matrix(1 0 0 1 -223 -7 )">
    <path d="M 20.5050505050505 8.22222222222222  C 20.8350168350168 8.39506172839506  21 8.60493827160494  21 8.85185185185185  C 21 9.09876543209877  20.8350168350168 9.30864197530864  20.5050505050505 9.48148148148148  L 18.1010101010101 10.7407407407407  C 17.7710437710438 10.9135802469136  17.3703703703704 11  16.8989898989899 11  C 16.4276094276094 11  16.026936026936 10.9135802469136  15.6969696969697 10.7407407407407  L 10.5 8.01851851851852  L 5.3030303030303 10.7407407407407  C 4.97306397306397 10.9135802469136  4.57239057239057 11  4.1010101010101 11  C 3.62962962962963 11  3.22895622895623 10.9135802469136  2.8989898989899 10.7407407407407  L 0.494949494949495 9.48148148148148  C 0.164983164983165 9.30864197530864  0 9.09876543209877  0 8.85185185185185  C 0 8.60493827160494  0.164983164983165 8.39506172839506  0.494949494949495 8.22222222222222  L 5.69191919191919 5.5  L 0.494949494949495 2.77777777777778  C 0.164983164983165 2.60493827160494  0 2.39506172839506  0 2.14814814814815  C 0 1.90123456790123  0.164983164983165 1.69135802469136  0.494949494949495 1.51851851851852  L 2.8989898989899 0.259259259259259  C 3.22895622895623 0.0864197530864194  3.62962962962963 0  4.1010101010101 0  C 4.57239057239057 0  4.97306397306397 0.0864197530864194  5.3030303030303 0.259259259259259  L 10.5 2.98148148148148  L 15.6969696969697 0.259259259259259  C 16.026936026936 0.0864197530864194  16.4276094276094 0  16.8989898989899 0  C 17.3703703703704 0  17.7710437710438 0.0864197530864194  18.1010101010101 0.259259259259259  L 20.5050505050505 1.51851851851852  C 20.8350168350168 1.69135802469136  21 1.90123456790123  21 2.14814814814815  C 21 2.39506172839506  20.8350168350168 2.60493827160494  20.5050505050505 2.77777777777778  L 15.3080808080808 5.5  L 20.5050505050505 8.22222222222222  Z " fill-rule="nonzero" fill="#aaaaaa" stroke="none" transform="matrix(1 0 0 1 223 7 )" />
  </g>
</svg>