<?xml version="1.0" encoding="utf-8"?>
<svg version="1.1" xmlns:xlink="http://www.w3.org/1999/xlink" width="22px" height="17px" xmlns="http://www.w3.org/2000/svg">
  <g transform="matrix(1 0 0 1 -276 -3 )">
    <path d="M 5.96105610561056 4.60627062706271  C 6.32409240924092 4.32574257425743  6.50561056105611 3.98723872387239  6.50561056105611 3.59075907590759  C 6.50561056105611 3.19427942794279  6.32409240924092 2.85577557755776  5.96105610561056 2.57524752475248  C 5.5980198019802 2.2947194719472  5.15995599559956 2.15445544554455  4.64686468646865 2.15445544554455  C 4.13377337733773 2.15445544554455  3.6957095709571 2.2947194719472  3.33267326732673 2.57524752475248  C 2.96963696369637 2.85577557755776  2.78811881188119 3.19427942794279  2.78811881188119 3.59075907590759  C 2.78811881188119 3.98723872387239  2.96963696369637 4.32574257425743  3.33267326732673 4.60627062706271  C 3.6957095709571 4.88679867986799  4.13377337733773 5.02706270627063  4.64686468646865 5.02706270627063  C 5.15995599559956 5.02706270627063  5.5980198019802 4.88679867986799  5.96105610561056 4.60627062706271  Z M 21.4627062706271 9.03300330033003  C 21.820902090209 9.32475247524753  22 9.66512651265127  22 10.0541254125413  C 22 10.450605060506  21.820902090209 10.7872387238724  21.4627062706271 11.0640264026403  L 14.3326732673267 16.5848184818482  C 13.9551155115512 16.8616061606161  13.5146314631463 17  13.0112211221122 17  C 12.4981298129813 17  12.0624862486249 16.8616061606161  11.7042904290429 16.5848184818482  L 1.32145214521452 8.55049504950495  C 0.953575357535754 8.27370737073707  0.641364136413641 7.89592959295929  0.384818481848185 7.41716171617162  C 0.128272827282728 6.93839383938394  0 6.5007700770077  0 6.1042904290429  L 0 1.43630363036304  C 0 1.04730473047305  0.183938393839384 0.71067106710671  0.551815181518152 0.426402640264026  C 0.91969196919692 0.142134213421341  1.35533553355336 0  1.85874587458746 0  L 7.8996699669967 0  C 8.41276127612761 0  8.97909790979098 0.0991199119911977  9.5986798679868 0.297359735973597  C 10.2182618261826 0.495599559955994  10.7119911991199 0.736853685368535  11.0798679867987 1.02112211221122  L 21.4627062706271 9.03300330033003  Z " fill-rule="nonzero" fill="#000000" stroke="none" transform="matrix(1 0 0 1 276 3 )" />
  </g>
</svg>