<?xml version="1.0" encoding="utf-8"?>
<svg version="1.1" xmlns:xlink="http://www.w3.org/1999/xlink" width="21px" height="12px" xmlns="http://www.w3.org/2000/svg">
  <g transform="matrix(1 0 0 1 -440 -6 )">
    <path d="M 20.5050505050505 8.96969696969697  C 20.8350168350168 9.15824915824916  21 9.38720538720539  21 9.65656565656566  C 21 9.92592592592593  20.8350168350168 10.1548821548822  20.5050505050505 10.3434343434343  L 18.1010101010101 11.7171717171717  C 17.7710437710438 11.9057239057239  17.3703703703704 12  16.8989898989899 12  C 16.4276094276094 12  16.026936026936 11.9057239057239  15.6969696969697 11.7171717171717  L 10.5 8.74747474747475  L 5.3030303030303 11.7171717171717  C 4.97306397306397 11.9057239057239  4.57239057239057 12  4.1010101010101 12  C 3.62962962962963 12  3.22895622895623 11.9057239057239  2.8989898989899 11.7171717171717  L 0.494949494949495 10.3434343434343  C 0.164983164983165 10.1548821548822  0 9.92592592592593  0 9.65656565656566  C 0 9.38720538720539  0.164983164983165 9.15824915824916  0.494949494949495 8.96969696969697  L 5.69191919191919 6  L 0.494949494949495 3.03030303030303  C 0.164983164983165 2.84175084175084  0 2.61279461279461  0 2.34343434343434  C 0 2.07407407407407  0.164983164983165 1.84511784511784  0.494949494949495 1.65656565656566  L 2.8989898989899 0.282828282828283  C 3.22895622895623 0.0942760942760938  3.62962962962963 0  4.1010101010101 0  C 4.57239057239057 0  4.97306397306397 0.0942760942760938  5.3030303030303 0.282828282828283  L 10.5 3.25252525252525  L 15.6969696969697 0.282828282828283  C 16.026936026936 0.0942760942760938  16.4276094276094 0  16.8989898989899 0  C 17.3703703703704 0  17.7710437710438 0.0942760942760938  18.1010101010101 0.282828282828283  L 20.5050505050505 1.65656565656566  C 20.8350168350168 1.84511784511784  21 2.07407407407407  21 2.34343434343434  C 21 2.61279461279461  20.8350168350168 2.84175084175084  20.5050505050505 3.03030303030303  L 15.3080808080808 6  L 20.5050505050505 8.96969696969697  Z " fill-rule="nonzero" fill="#aaaaaa" stroke="none" transform="matrix(1 0 0 1 440 6 )" />
  </g>
</svg>