<?xml version="1.0" encoding="utf-8"?>
<svg version="1.1" xmlns:xlink="http://www.w3.org/1999/xlink" width="7px" height="7px" xmlns="http://www.w3.org/2000/svg">
  <defs>
    <mask fill="white" id="clip139">
      <path d="M 0 3.5  C 0 5.4329966243  1.5670033757 7  3.5 7  C 5.4329966243 7  7 5.4329966243  7 3.5  C 7 1.5670033757  5.4329966243 0  3.5 0  C 1.5670033757 0  0 1.5670033757  0 3.5  Z " fill-rule="evenodd" />
    </mask>
  </defs>
  <g transform="matrix(1 0 0 1 -387 -1430 )">
    <path d="M 0 3.5  C 0 5.4329966243  1.5670033757 7  3.5 7  C 5.4329966243 7  7 5.4329966243  7 3.5  C 7 1.5670033757  5.4329966243 0  3.5 0  C 1.5670033757 0  0 1.5670033757  0 3.5  Z " fill-rule="nonzero" fill="#5b8ff9" stroke="none" transform="matrix(1 0 0 1 387 1430 )" />
    <path d="M 0 3.5  C 0 5.4329966243  1.5670033757 7  3.5 7  C 5.4329966243 7  7 5.4329966243  7 3.5  C 7 1.5670033757  5.4329966243 0  3.5 0  C 1.5670033757 0  0 1.5670033757  0 3.5  Z " stroke-width="2" stroke="#797979" fill="none" transform="matrix(1 0 0 1 387 1430 )" mask="url(#clip139)" />
  </g>
</svg>