<?xml version="1.0" encoding="utf-8"?>
<svg version="1.1" xmlns:xlink="http://www.w3.org/1999/xlink" width="198px" height="199px" xmlns="http://www.w3.org/2000/svg">
  <defs>
    <mask fill="white" id="clip105">
      <path d="M 198 160.661641005954  C 198 160.661641005954  114.519985553714 77.4673440618119  114.519985553714 77.4673440618119  C 114.519985553714 77.4673440618119  26.2823571054978 0  26.2823571054978 0  C -13.1398175242886 50.5718475560812  -7.6035498579214 125.225226206245  38.7878788524515 168.629753193599  C 85.1793075628245 212.034280180953  155.66344538919 208.506750281835  198 160.661641005954  Z " fill-rule="evenodd" />
    </mask>
  </defs>
  <g transform="matrix(1 0 0 1 -168 -814 )">
    <path d="M 198 160.661641005954  C 198 160.661641005954  114.519985553714 77.4673440618119  114.519985553714 77.4673440618119  C 114.519985553714 77.4673440618119  26.2823571054978 0  26.2823571054978 0  C -13.1398175242886 50.5718475560812  -7.6035498579214 125.225226206245  38.7878788524515 168.629753193599  C 85.1793075628245 212.034280180953  155.66344538919 208.506750281835  198 160.661641005954  Z " fill-rule="nonzero" fill="#5ad8a6" stroke="none" transform="matrix(1 0 0 1 168 814 )" />
    <path d="M 198 160.661641005954  C 198 160.661641005954  114.519985553714 77.4673440618119  114.519985553714 77.4673440618119  C 114.519985553714 77.4673440618119  26.2823571054978 0  26.2823571054978 0  C -13.1398175242886 50.5718475560812  -7.6035498579214 125.225226206245  38.7878788524515 168.629753193599  C 85.1793075628245 212.034280180953  155.66344538919 208.506750281835  198 160.661641005954  Z " stroke-width="2" stroke="#797979" fill="none" transform="matrix(1 0 0 1 168 814 )" mask="url(#clip105)" />
  </g>
</svg>