<?xml version="1.0" encoding="utf-8"?>
<svg version="1.1" xmlns:xlink="http://www.w3.org/1999/xlink" width="87px" height="66px" xmlns="http://www.w3.org/2000/svg">
  <defs>
    <mask fill="white" id="clip91">
      <path d="M 85.9909841553183 0.00421165783825073  C 85.9909841553183 0.00421165783825073  87 0  87 0  L 86.999376263764 43.4175191122405  C 86.999376263764 43.4175191122405  85.9855293551416 43.4258898846804  85.9855293551416 43.4258898846804  C 65.781595205868 43.7327359687837  47.7599084911568 52.4486017201272  35.7353740852687 66  C 35.7353740852687 66  0 38.3251169034143  0 38.3251169034143  C 21.2358899253541 14.2943602401918  52.7113974098653 0.282054693113496  85.9909841553183 0.00421165783825073  Z " fill-rule="evenodd" />
    </mask>
  </defs>
  <g transform="matrix(1 0 0 1 -161 -1356 )">
    <path d="M 85.9909841553183 0.00421165783825073  C 85.9909841553183 0.00421165783825073  87 0  87 0  L 86.999376263764 43.4175191122405  C 86.999376263764 43.4175191122405  85.9855293551416 43.4258898846804  85.9855293551416 43.4258898846804  C 65.781595205868 43.7327359687837  47.7599084911568 52.4486017201272  35.7353740852687 66  C 35.7353740852687 66  0 38.3251169034143  0 38.3251169034143  C 21.2358899253541 14.2943602401918  52.7113974098653 0.282054693113496  85.9909841553183 0.00421165783825073  Z " fill-rule="nonzero" fill="#5d7092" stroke="none" transform="matrix(1 0 0 1 161 1356 )" />
    <path d="M 85.9909841553183 0.00421165783825073  C 85.9909841553183 0.00421165783825073  87 0  87 0  L 86.999376263764 43.4175191122405  C 86.999376263764 43.4175191122405  85.9855293551416 43.4258898846804  85.9855293551416 43.4258898846804  C 65.781595205868 43.7327359687837  47.7599084911568 52.4486017201272  35.7353740852687 66  C 35.7353740852687 66  0 38.3251169034143  0 38.3251169034143  C 21.2358899253541 14.2943602401918  52.7113974098653 0.282054693113496  85.9909841553183 0.00421165783825073  Z " stroke-width="2" stroke="#797979" fill="none" transform="matrix(1 0 0 1 161 1356 )" mask="url(#clip91)" />
  </g>
</svg>