<?xml version="1.0" encoding="utf-8"?>
<svg version="1.1" xmlns:xlink="http://www.w3.org/1999/xlink" width="113px" height="180px" xmlns="http://www.w3.org/2000/svg">
  <defs>
    <mask fill="white" id="clip197">
      <path d="M 0 43.8904392062194  C 0 43.8904392062194  0 0  0 0  C 45.0578696891112 0  85.8092915515486 25.3132369117153  103.703929455076 64.4169458389329  C 121.419620979568 103.129617676878  113.380855012433 148.032331855626  83.2901784317407 179.063915487312  C 83.2901784317407 179.063915487312  82.3715936672429 180  82.3715936672429 180  C 82.3715936672429 180  48.8799034422498 150.258342029115  48.8799034422498 150.258342029115  C 60.0481771556926 138.961159452962  66.8850430895539 123.782377554529  66.8850430895539 107.092666319827  C 66.8850430895539 72.5360934719289  37.5747103921323 44.4570268318068  1.19393731323439 43.8989011562892  C 1.19393731323439 43.8989011562892  0 43.8904392062194  0 43.8904392062194  Z " fill-rule="evenodd" />
    </mask>
  </defs>
  <g transform="matrix(1 0 0 1 -248 -1356 )">
    <path d="M 0 43.8904392062194  C 0 43.8904392062194  0 0  0 0  C 45.0578696891112 0  85.8092915515486 25.3132369117153  103.703929455076 64.4169458389329  C 121.419620979568 103.129617676878  113.380855012433 148.032331855626  83.2901784317407 179.063915487312  C 83.2901784317407 179.063915487312  82.3715936672429 180  82.3715936672429 180  C 82.3715936672429 180  48.8799034422498 150.258342029115  48.8799034422498 150.258342029115  C 60.0481771556926 138.961159452962  66.8850430895539 123.782377554529  66.8850430895539 107.092666319827  C 66.8850430895539 72.5360934719289  37.5747103921323 44.4570268318068  1.19393731323439 43.8989011562892  C 1.19393731323439 43.8989011562892  0 43.8904392062194  0 43.8904392062194  Z " fill-rule="nonzero" fill="#5b8ff9" stroke="none" transform="matrix(1 0 0 1 248 1356 )" />
    <path d="M 0 43.8904392062194  C 0 43.8904392062194  0 0  0 0  C 45.0578696891112 0  85.8092915515486 25.3132369117153  103.703929455076 64.4169458389329  C 121.419620979568 103.129617676878  113.380855012433 148.032331855626  83.2901784317407 179.063915487312  C 83.2901784317407 179.063915487312  82.3715936672429 180  82.3715936672429 180  C 82.3715936672429 180  48.8799034422498 150.258342029115  48.8799034422498 150.258342029115  C 60.0481771556926 138.961159452962  66.8850430895539 123.782377554529  66.8850430895539 107.092666319827  C 66.8850430895539 72.5360934719289  37.5747103921323 44.4570268318068  1.19393731323439 43.8989011562892  C 1.19393731323439 43.8989011562892  0 43.8904392062194  0 43.8904392062194  Z " stroke-width="2" stroke="#797979" fill="none" transform="matrix(1 0 0 1 248 1356 )" mask="url(#clip197)" />
  </g>
</svg>