<?xml version="1.0" encoding="utf-8"?>
<svg version="1.1" xmlns:xlink="http://www.w3.org/1999/xlink" width="15px" height="121px" xmlns="http://www.w3.org/2000/svg">
  <defs>
    <mask fill="white" id="clip215">
      <path d="M 0 1.04121406929649  C 14.5466635028606 121.689231360704  14.999995587368 120.996039974355  14.999995587368 120.996039974355  C 14.999995587368 120.996039974355  15 0  15 0  C 9.95158140678457 0  4.94207285079342 0.351798046410384  0 1.04121406929649  Z " fill-rule="evenodd" />
    </mask>
  </defs>
  <g transform="matrix(1 0 0 1 -269 -770 )">
    <path d="M 0 1.04121406929649  C 14.5466635028606 121.689231360704  14.999995587368 120.996039974355  14.999995587368 120.996039974355  C 14.999995587368 120.996039974355  15 0  15 0  C 9.95158140678457 0  4.94207285079342 0.351798046410384  0 1.04121406929649  Z " fill-rule="nonzero" fill="#f6bd16" stroke="none" transform="matrix(1 0 0 1 269 770 )" />
    <path d="M 0 1.04121406929649  C 14.5466635028606 121.689231360704  14.999995587368 120.996039974355  14.999995587368 120.996039974355  C 14.999995587368 120.996039974355  15 0  15 0  C 9.95158140678457 0  4.94207285079342 0.351798046410384  0 1.04121406929649  Z " stroke-width="2" stroke="#797979" fill="none" transform="matrix(1 0 0 1 269 770 )" mask="url(#clip215)" />
  </g>
</svg>