<?xml version="1.0" encoding="utf-8"?>
<svg version="1.1" xmlns:xlink="http://www.w3.org/1999/xlink" width="18px" height="45px" xmlns="http://www.w3.org/2000/svg">
  <defs>
    <mask fill="white" id="clip200">
      <path d="M 16.7863711494494 0.00591015741197119  C 16.7863711494494 0.00591015741197119  18 0  18 0  L 17.9994029559233 44.222034248467  C 17.9994029559233 44.222034248467  17.0732780556657 44.2289419590553  17.0732780556657 44.2289419590553  C 14.023964746771 44.2703727254243  11.0229691786079 44.4975966477515  8.08276677389856 44.8989984573896  C 8.08276677389856 44.8989984573896  7.39458475519849 45  7.39458475519849 45  L 0 1.3099099614944  C 5.51773352917107 0.501480026408701  11.1263713158587 0.061042181470074  16.7863711494494 0.00591015741197119  Z " fill-rule="evenodd" />
    </mask>
  </defs>
  <g transform="matrix(1 0 0 1 -230 -1356 )">
    <path d="M 16.7863711494494 0.00591015741197119  C 16.7863711494494 0.00591015741197119  18 0  18 0  L 17.9994029559233 44.222034248467  C 17.9994029559233 44.222034248467  17.0732780556657 44.2289419590553  17.0732780556657 44.2289419590553  C 14.023964746771 44.2703727254243  11.0229691786079 44.4975966477515  8.08276677389856 44.8989984573896  C 8.08276677389856 44.8989984573896  7.39458475519849 45  7.39458475519849 45  L 0 1.3099099614944  C 5.51773352917107 0.501480026408701  11.1263713158587 0.061042181470074  16.7863711494494 0.00591015741197119  Z " fill-rule="nonzero" fill="#f6bd16" stroke="none" transform="matrix(1 0 0 1 230 1356 )" />
    <path d="M 16.7863711494494 0.00591015741197119  C 16.7863711494494 0.00591015741197119  18 0  18 0  L 17.9994029559233 44.222034248467  C 17.9994029559233 44.222034248467  17.0732780556657 44.2289419590553  17.0732780556657 44.2289419590553  C 14.023964746771 44.2703727254243  11.0229691786079 44.4975966477515  8.08276677389856 44.8989984573896  C 8.08276677389856 44.8989984573896  7.39458475519849 45  7.39458475519849 45  L 0 1.3099099614944  C 5.51773352917107 0.501480026408701  11.1263713158587 0.061042181470074  16.7863711494494 0.00591015741197119  Z " stroke-width="2" stroke="#797979" fill="none" transform="matrix(1 0 0 1 230 1356 )" mask="url(#clip200)" />
  </g>
</svg>