<?xml version="1.0" encoding="utf-8"?>
<svg version="1.1" xmlns:xlink="http://www.w3.org/1999/xlink" width="196px" height="175px" xmlns="http://www.w3.org/2000/svg">
  <defs>
    <mask fill="white" id="clip90">
      <path d="M 24.8595068586783 1.34048641826575  C 24.8595068586783 1.34048641826575  26.0168787508967 0  26.0168787508967 0  C 26.0168787508967 0  61.8937415216011 27.9827330449956  61.8937415216011 27.9827330449956  C 52.2445851961142 38.9345534902943  46.4421088014581 53.0098483698442  46.4421088014581 68.3636127983732  C 46.4421088014581 103.276143946788  76.4438395229958 131.578342448355  113.452849910088 131.578342448355  C 132.765986008763 131.578342448355  150.170850853636 123.870890427364  162.39961763019 111.538697980644  C 162.39961763019 111.538697980644  196 141.285362693678  196 141.285362693678  C 154.091087354956 183.360207534277  84.3189105167354 186.462306691792  38.3960820963662 148.292496527034  C -7.06751803979933 110.504384463923  -12.8934409310704 45.7829813702798  24.8595068586783 1.34048641826575  Z " fill-rule="evenodd" />
    </mask>
  </defs>
  <g transform="matrix(1 0 0 1 -135 -1395 )">
    <path d="M 24.8595068586783 1.34048641826575  C 24.8595068586783 1.34048641826575  26.0168787508967 0  26.0168787508967 0  C 26.0168787508967 0  61.8937415216011 27.9827330449956  61.8937415216011 27.9827330449956  C 52.2445851961142 38.9345534902943  46.4421088014581 53.0098483698442  46.4421088014581 68.3636127983732  C 46.4421088014581 103.276143946788  76.4438395229958 131.578342448355  113.452849910088 131.578342448355  C 132.765986008763 131.578342448355  150.170850853636 123.870890427364  162.39961763019 111.538697980644  C 162.39961763019 111.538697980644  196 141.285362693678  196 141.285362693678  C 154.091087354956 183.360207534277  84.3189105167354 186.462306691792  38.3960820963662 148.292496527034  C -7.06751803979933 110.504384463923  -12.8934409310704 45.7829813702798  24.8595068586783 1.34048641826575  Z " fill-rule="nonzero" fill="#5ad8a6" stroke="none" transform="matrix(1 0 0 1 135 1395 )" />
    <path d="M 24.8595068586783 1.34048641826575  C 24.8595068586783 1.34048641826575  26.0168787508967 0  26.0168787508967 0  C 26.0168787508967 0  61.8937415216011 27.9827330449956  61.8937415216011 27.9827330449956  C 52.2445851961142 38.9345534902943  46.4421088014581 53.0098483698442  46.4421088014581 68.3636127983732  C 46.4421088014581 103.276143946788  76.4438395229958 131.578342448355  113.452849910088 131.578342448355  C 132.765986008763 131.578342448355  150.170850853636 123.870890427364  162.39961763019 111.538697980644  C 162.39961763019 111.538697980644  196 141.285362693678  196 141.285362693678  C 154.091087354956 183.360207534277  84.3189105167354 186.462306691792  38.3960820963662 148.292496527034  C -7.06751803979933 110.504384463923  -12.8934409310704 45.7829813702798  24.8595068586783 1.34048641826575  Z " stroke-width="2" stroke="#797979" fill="none" transform="matrix(1 0 0 1 135 1395 )" mask="url(#clip90)" />
  </g>
</svg>