<?xml version="1.0" encoding="utf-8"?>
<svg version="1.1" xmlns:xlink="http://www.w3.org/1999/xlink" width="88px" height="120px" xmlns="http://www.w3.org/2000/svg">
  <defs>
    <mask fill="white" id="clip106">
      <path d="M 72.0028026008396 0.153666898318617  L 73.0626190613205 0  C 73.0626190613205 0  78.4391391203678 44.5439767857199  78.4391391203678 44.5439767857199  C 84.4345679039284 93.9527173186049  87.6215215304725 119.104725056698  88 120  C 88 120  0 42.8526115123438  0 42.8526115123438  C 18.2629026230888 19.4582075669454  44.0109809643701 4.3539852942468  72.0028026008396 0.153666898318642  Z " fill-rule="evenodd" />
    </mask>
  </defs>
  <g transform="matrix(1 0 0 1 -195 -771 )">
    <path d="M 72.0028026008396 0.153666898318617  L 73.0626190613205 0  C 73.0626190613205 0  78.4391391203678 44.5439767857199  78.4391391203678 44.5439767857199  C 84.4345679039284 93.9527173186049  87.6215215304725 119.104725056698  88 120  C 88 120  0 42.8526115123438  0 42.8526115123438  C 18.2629026230888 19.4582075669454  44.0109809643701 4.3539852942468  72.0028026008396 0.153666898318642  Z " fill-rule="nonzero" fill="#5d7092" stroke="none" transform="matrix(1 0 0 1 195 771 )" />
    <path d="M 72.0028026008396 0.153666898318617  L 73.0626190613205 0  C 73.0626190613205 0  78.4391391203678 44.5439767857199  78.4391391203678 44.5439767857199  C 84.4345679039284 93.9527173186049  87.6215215304725 119.104725056698  88 120  C 88 120  0 42.8526115123438  0 42.8526115123438  C 18.2629026230888 19.4582075669454  44.0109809643701 4.3539852942468  72.0028026008396 0.153666898318642  Z " stroke-width="2" stroke="#797979" fill="none" transform="matrix(1 0 0 1 195 771 )" mask="url(#clip106)" />
  </g>
</svg>