<?xml version="1.0" encoding="utf-8"?>
<svg version="1.1" xmlns:xlink="http://www.w3.org/1999/xlink" width="114px" height="204px" xmlns="http://www.w3.org/2000/svg">
  <defs>
    <mask fill="white" id="clip108">
      <path d="M 0 0  C 0 0  0 121.100792659363  0 121.100792659363  C 0 121.100792659363  83.1005458235902 204  83.1005458235902 204  C 114.217737944203 168.798767496067  122.674660875051 117.323408734971  104.621663344059 73.0058719507906  C 86.5686658130667 28.6883351666106  45.4566118987493 0  0 0  Z " fill-rule="evenodd" />
    </mask>
  </defs>
  <g transform="matrix(1 0 0 1 -282 -770 )">
    <path d="M 0 0  C 0 0  0 121.100792659363  0 121.100792659363  C 0 121.100792659363  83.1005458235902 204  83.1005458235902 204  C 114.217737944203 168.798767496067  122.674660875051 117.323408734971  104.621663344059 73.0058719507906  C 86.5686658130667 28.6883351666106  45.4566118987493 0  0 0  Z " fill-rule="nonzero" fill="#ffffff" stroke="none" fill-opacity="0" transform="matrix(1 0 0 1 282 770 )" />
    <path d="M 0 0  C 0 0  0 121.100792659363  0 121.100792659363  C 0 121.100792659363  83.1005458235902 204  83.1005458235902 204  C 114.217737944203 168.798767496067  122.674660875051 117.323408734971  104.621663344059 73.0058719507906  C 86.5686658130667 28.6883351666106  45.4566118987493 0  0 0  Z " stroke-width="2" stroke="#000000" fill="none" stroke-opacity="0.850980392156863" transform="matrix(1 0 0 1 282 770 )" mask="url(#clip108)" />
  </g>
</svg>