<?xml version="1.0" encoding="utf-8"?>
<svg version="1.1" xmlns:xlink="http://www.w3.org/1999/xlink" width="42px" height="16px" xmlns="http://www.w3.org/2000/svg">
  <defs>
    <mask fill="white" id="clip1510">
      <path d="M 0 16  L 0 0  L 28.35 0  L 28.7272727272727 0  L 30.45 0  L 42 0  L 42 16  L 33.6 16  L 16.1538461538462 16  L 0 16  Z " fill-rule="evenodd" />
    </mask>
  </defs>
  <g transform="matrix(1 0 0 1 -176 -1048 )">
    <path d="M 0 16  L 0 0  L 28.35 0  L 28.7272727272727 0  L 30.45 0  L 42 0  L 42 16  L 33.6 16  L 16.1538461538462 16  L 0 16  Z " fill-rule="nonzero" fill="#d9001b" stroke="none" transform="matrix(1 0 0 1 176 1048 )" />
    <path d="M 0 16  L 0 0  L 28.35 0  L 28.7272727272727 0  L 30.45 0  L 42 0  L 42 16  L 33.6 16  L 16.1538461538462 16  L 0 16  Z " stroke-width="2" stroke="#d9001b" fill="none" transform="matrix(1 0 0 1 176 1048 )" mask="url(#clip1510)" />
  </g>
</svg>