<?xml version="1.0" encoding="utf-8"?>
<svg version="1.1" xmlns:xlink="http://www.w3.org/1999/xlink" width="25px" height="25px" xmlns="http://www.w3.org/2000/svg">
  <g transform="matrix(1 0 0 1 -109 -483 )">
    <path d="M 17.9837740384615 8.75355113636363  C 18.174078525641 8.52864583333333  18.2692307692308 8.26231060606061  18.2692307692308 7.95454545454546  C 18.2692307692308 7.6467803030303  18.174078525641 7.38044507575757  17.9837740384615 7.15553977272727  C 17.7934695512821 6.93063446969697  17.568108974359 6.81818181818182  17.3076923076923 6.81818181818182  L 15.3846153846154 6.81818181818182  L 15.3846153846154 4.54545454545454  C 15.3846153846154 4.23768939393939  15.2894631410256 3.97135416666666  15.0991586538462 3.74644886363636  C 14.9088541666667 3.52154356060606  14.6834935897436 3.40909090909091  14.4230769230769 3.40909090909091  C 14.1626602564103 3.40909090909091  13.9372996794872 3.52154356060606  13.7469951923077 3.74644886363636  C 13.5566907051282 3.97135416666666  13.4615384615385 4.23768939393939  13.4615384615385 4.54545454545454  L 13.4615384615385 6.81818181818182  L 11.5384615384615 6.81818181818182  C 11.2780448717949 6.81818181818182  11.0526842948718 6.93063446969697  10.8623798076923 7.15553977272727  C 10.6720753205128 7.38044507575757  10.5769230769231 7.6467803030303  10.5769230769231 7.95454545454546  C 10.5769230769231 8.26231060606061  10.6720753205128 8.52864583333333  10.8623798076923 8.75355113636363  C 11.0526842948718 8.97845643939394  11.2780448717949 9.09090909090909  11.5384615384615 9.09090909090909  L 13.4615384615385 9.09090909090909  L 13.4615384615385 11.3636363636364  C 13.4615384615385 11.6714015151515  13.5566907051282 11.9377367424242  13.7469951923077 12.1626420454545  C 13.9372996794872 12.3875473484848  14.1626602564103 12.5  14.4230769230769 12.5  C 14.6834935897436 12.5  14.9088541666667 12.3875473484848  15.0991586538462 12.1626420454545  C 15.2894631410256 11.9377367424242  15.3846153846154 11.6714015151515  15.3846153846154 11.3636363636364  L 15.3846153846154 9.09090909090909  L 17.3076923076923 9.09090909090909  C 17.568108974359 9.09090909090909  17.7934695512821 8.97845643939394  17.9837740384615 8.75355113636363  Z M 9.05198317307692 21.1203835227273  C 9.42758413461538 21.5642755681818  9.61538461538462 22.0999053030303  9.61538461538462 22.7272727272727  C 9.61538461538462 23.3546401515151  9.42758413461538 23.8902698863636  9.05198317307692 24.3341619318182  C 8.67638221153846 24.7780539772727  8.22315705128205 25  7.69230769230769 25  C 7.16145833333333 25  6.70823317307692 24.7780539772727  6.33263221153846 24.3341619318182  C 5.95703125 23.8902698863636  5.76923076923077 23.3546401515151  5.76923076923077 22.7272727272727  C 5.76923076923077 22.0999053030303  5.95703125 21.5642755681818  6.33263221153846 21.1203835227273  C 6.70823317307692 20.6764914772727  7.16145833333333 20.4545454545455  7.69230769230769 20.4545454545455  C 8.22315705128205 20.4545454545455  8.67638221153846 20.6764914772727  9.05198317307692 21.1203835227273  Z M 22.5135216346154 21.1203835227273  C 22.8891225961538 21.5642755681818  23.0769230769231 22.0999053030303  23.0769230769231 22.7272727272727  C 23.0769230769231 23.3546401515151  22.8891225961538 23.8902698863636  22.5135216346154 24.3341619318182  C 22.1379206730769 24.7780539772727  21.6846955128205 25  21.1538461538462 25  C 20.6229967948718 25  20.1697716346154 24.7780539772727  19.7941706730769 24.3341619318182  C 19.4185697115385 23.8902698863636  19.2307692307692 23.3546401515151  19.2307692307692 22.7272727272727  C 19.2307692307692 22.0999053030303  19.4185697115385 21.5642755681818  19.7941706730769 21.1203835227273  C 20.1697716346154 20.6764914772727  20.6229967948718 20.4545454545455  21.1538461538462 20.4545454545455  C 21.6846955128205 20.4545454545455  22.1379206730769 20.6764914772727  22.5135216346154 21.1203835227273  Z M 24.7145432692308 2.61008522727273  C 24.9048477564103 2.83499053030303  25 3.10132575757575  25 3.40909090909091  L 25 12.5  C 25 12.7840909090909  24.9198717948718 13.0356297348485  24.7596153846154 13.2546164772727  C 24.599358974359 13.473603219697  24.394030448718 13.6008522727273  24.1436298076923 13.6363636363636  L 8.45853365384615 15.8025568181818  C 8.46854967948718 15.8854166666667  8.49108573717949 16.012665719697  8.52614182692308 16.1843039772727  C 8.56119791666667 16.3559422348485  8.59124599358974 16.5127840909091  8.61628605769231 16.6548295454545  C 8.64132612179487 16.796875  8.65384615384615 16.9270833333333  8.65384615384615 17.0454545454545  C 8.65384615384615 17.2348484848485  8.53365384615385 17.6136363636364  8.29326923076923 18  L 22.1153846153846 18  C 22.3758012820513 18.1818181818182  22.6011618589744 18.2942708333333  22.7914663461538 18.5191761363636  C 22.9817708333333 18.7440814393939  23.0769230769231 19.0104166666667  23.0769230769231 19.3181818181818  C 23.0769230769231 19.625946969697  22.9817708333333 19.8922821969697  22.7914663461538 20.1171875  C 22.6011618589744 20.3420928030303  22.3758012820513 20.4545454545455  22.1153846153846 20  L 6.73076923076923 20  C 6.47035256410256 20.4545454545455  6.24499198717949 20.3420928030303  6.0546875 20.1171875  C 5.86438301282051 19.8922821969697  5.76923076923077 19.625946969697  5.76923076923077 19.3181818181818  C 5.76923076923077 19.1524621212121  5.82431891025641 18.9186789772727  5.93449519230769 18.6168323863636  C 6.04467147435898 18.3149857954545  6.1924078525641 17.9628314393939  6.37770432692308 17.5603693181818  C 6.56300080128205 17.1579071969697  6.66566506410256 16.9330018939394  6.68569711538462 16.8856534090909  L 4.02644230769231 2.27272727272727  L 0.961538461538462 2.27272727272727  C 0.701121794871795 2.27272727272727  0.475761217948718 2.16027462121212  0.285456730769231 1.93536931818182  C 0.0951522435897436 1.71046401515151  0 1.44412878787879  0 1.13636363636364  C 0 0.828598484848483  0.0951522435897436 0.562263257575754  0.285456730769231 0.337357954545456  C 0.475761217948718 0.112452651515149  0.701121794871795 0  0.961538461538462 0  L 4.80769230769231 0  C 4.96794871794872 0  5.11067708333333 0.0384706439393923  5.23587740384615 0.115411931818182  C 5.36107772435898 0.19235321969697  5.46123798076923 0.284090909090909  5.53635817307692 0.390625  C 5.61147836538461 0.497159090909091  5.67658253205128 0.642163825757572  5.73167067307692 0.825639204545456  C 5.78675881410257 1.00911458333333  5.82431891025641 1.16595643939394  5.84435096153846 1.29616477272727  C 5.86438301282051 1.42637310606061  5.89192708333333 1.60097064393939  5.92698317307692 1.81995738636364  C 5.96203926282051 2.03894412878788  5.98457532051282 2.18986742424242  5.99459134615385 2.27272727272727  L 24.0384615384615 2.27272727272727  C 24.2988782051282 2.27272727272727  24.5242387820513 2.38517992424242  24.7145432692308 2.61008522727273  Z " fill-rule="nonzero" fill="#7f7f7f" stroke="none" transform="matrix(1 0 0 1 109 483 )" />
  </g>
</svg>