<?xml version="1.0" encoding="utf-8"?>
<svg version="1.1" xmlns:xlink="http://www.w3.org/1999/xlink" width="47px" height="16px" xmlns="http://www.w3.org/2000/svg">
  <defs>
    <mask fill="white" id="clip27">
      <path d="M 0 16  L 0 0  L 31.725 0  L 32.1471861471862 0  L 34.075 0  L 47 0  L 47 16  L 37.6 16  L 18.0769230769231 16  L 0 16  Z " fill-rule="evenodd" />
    </mask>
  </defs>
  <g transform="matrix(1 0 0 1 -128 -891 )">
    <path d="M 0 16  L 0 0  L 31.725 0  L 32.1471861471862 0  L 34.075 0  L 47 0  L 47 16  L 37.6 16  L 18.0769230769231 16  L 0 16  Z " fill-rule="nonzero" fill="#d9001b" stroke="none" transform="matrix(1 0 0 1 128 891 )" />
    <path d="M 0 16  L 0 0  L 31.725 0  L 32.1471861471862 0  L 34.075 0  L 47 0  L 47 16  L 37.6 16  L 18.0769230769231 16  L 0 16  Z " stroke-width="2" stroke="#d9001b" fill="none" transform="matrix(1 0 0 1 128 891 )" mask="url(#clip27)" />
  </g>
</svg>