<?xml version="1.0" encoding="utf-8"?>
<svg version="1.1" xmlns:xlink="http://www.w3.org/1999/xlink" width="39px" height="16px" xmlns="http://www.w3.org/2000/svg">
  <defs>
    <mask fill="white" id="clip53">
      <path d="M 0 16  L 0 0  L 26.325 0  L 26.6753246753247 0  L 28.275 0  L 39 0  L 39 16  L 31.2 16  L 15 16  L 0 16  Z " fill-rule="evenodd" />
    </mask>
  </defs>
  <g transform="matrix(1 0 0 1 -128 -1048 )">
    <path d="M 0 16  L 0 0  L 26.325 0  L 26.6753246753247 0  L 28.275 0  L 39 0  L 39 16  L 31.2 16  L 15 16  L 0 16  Z " fill-rule="nonzero" fill="#d9001b" stroke="none" transform="matrix(1 0 0 1 128 1048 )" />
    <path d="M 0 16  L 0 0  L 26.325 0  L 26.6753246753247 0  L 28.275 0  L 39 0  L 39 16  L 31.2 16  L 15 16  L 0 16  Z " stroke-width="2" stroke="#d9001b" fill="none" transform="matrix(1 0 0 1 128 1048 )" mask="url(#clip53)" />
  </g>
</svg>