<?xml version="1.0" encoding="utf-8"?>
<svg version="1.1" xmlns:xlink="http://www.w3.org/1999/xlink" width="30px" height="21px" xmlns="http://www.w3.org/2000/svg">
  <g transform="matrix(1 0 0 1 -270 0 )">
    <path d="M 19.3621621621622 15.946875  C 19.6216216216216 16.078125  19.7513513513514 16.23125  19.7513513513514 16.40625  L 19.7513513513514 20.34375  C 19.7513513513514 20.51875  19.6216216216216 20.671875  19.3621621621622 20.803125  C 19.1027027027027 20.934375  18.8 21  18.4540540540541 21  L 10.6702702702703 21  C 10.3243243243243 21  10.0216216216216 20.934375  9.76216216216216 20.803125  C 9.5027027027027 20.671875  9.37297297297297 20.51875  9.37297297297297 20.34375  L 9.37297297297297 16.40625  C 9.37297297297297 16.23125  9.5027027027027 16.078125  9.76216216216216 15.946875  C 10.0216216216216 15.815625  10.3243243243243 15.75  10.6702702702703 15.75  L 18.4540540540541 15.75  C 18.8 15.75  19.1027027027027 15.815625  19.3621621621622 15.946875  Z M 28.6702702702703 3.962109375  C 29.5567567567568 4.787890625  30 5.6546875  30 6.5625  C 30 7.153125  29.8324324324324 7.70546875  29.4972972972973 8.21953125  C 29.1621621621622 8.73359375  28.7837837837838 9.151953125  28.3621621621622 9.474609375  C 27.9405405405405 9.797265625  27.3459459459459 10.12265625  26.5783783783784 10.45078125  C 25.8108108108108 10.77890625  25.1891891891892 11.016796875  24.7135135135135 11.164453125  C 24.2378378378378 11.312109375  23.5783783783784 11.50625  22.7351351351351 11.746875  C 21.8486486486487 11.9984375  21.1081081081081 12.35390625  20.5135135135135 12.81328125  C 19.9189189189189 13.27265625  19.6216216216216 13.6390625  19.6216216216216 13.9125  C 19.6216216216216 14.0984375  19.4918918918919 14.276171875  19.2324324324324 14.445703125  C 18.972972972973 14.615234375  18.6702702702703 14.7  18.3243243243243 14.7  L 10.5405405405405 14.7  C 10.2162162162162 14.7  9.94054054054054 14.598828125  9.71351351351352 14.396484375  C 9.48648648648649 14.194140625  9.37297297297297 13.9890625  9.37297297297297 13.78125  L 9.37297297297297 13.04296875  C 9.37297297297297 12.13515625  10.0756756756757 11.279296875  11.4810810810811 10.475390625  C 12.8864864864865 9.671484375  14.4324324324324 9.078125  16.1189189189189 8.6953125  C 17.3945945945946 8.4  18.3027027027027 8.09375  18.8432432432432 7.7765625  C 19.3837837837838 7.459375  19.6540540540541 7.04375  19.6540540540541 6.5296875  C 19.6540540540541 6.0703125  19.1513513513514 5.665625  18.1459459459459 5.315625  C 17.1405405405405 4.965625  15.9783783783784 4.790625  14.6594594594595 4.790625  C 13.2540540540541 4.790625  12.0864864864865 4.94921875  11.1567567567568 5.26640625  C 10.4 5.53984375  9.24324324324324 6.16875  7.68648648648649 7.153125  C 7.40540540540541 7.328125  7.07027027027027 7.415625  6.68108108108108 7.415625  C 6.42162162162162 7.415625  6.15135135135135 7.371875  5.87027027027027 7.284375  L 0.551351351351351 5.23359375  C 0.270270270270271 5.12421875  0.102702702702703 4.9875  0.0486486486486486 4.8234375  C -0.0054054054054051 4.659375  0.0540540540540542 4.50625  0.227027027027027 4.3640625  C 3.68648648648649 1.4546875  8.7027027027027 0  15.2756756756757 0  C 17.0054054054054 0  18.7459459459459 0.16953125  20.4972972972973 0.508593749999999  C 22.2486486486486 0.847656249999998  23.827027027027 1.3015625  25.2324324324324 1.8703125  C 26.6378378378378 2.4390625  27.7837837837838 3.136328125  28.6702702702703 3.962109375  Z " fill-rule="nonzero" fill="#000000" stroke="none" transform="matrix(1 0 0 1 270 0 )" />
  </g>
</svg>