<?xml version="1.0" encoding="utf-8"?>
<svg version="1.1" xmlns:xlink="http://www.w3.org/1999/xlink" width="50px" height="51px" xmlns="http://www.w3.org/2000/svg">
  <g transform="matrix(1 0 0 1 -66 -49 )">
    <path d="M 12.451171875 3.419921875  C 16.2814670138889 1.13997395833333  20.4644097222222 0  25 0  C 29.5355902777778 0  33.7185329861111 1.13997395833333  37.548828125 3.419921875  C 41.3791232638889 5.69986979166666  44.4118923611111 8.79329427083333  46.6471354166667 12.7001953125  C 48.8823784722222 16.6070963541667  50 20.8736979166667  50 25.5  C 50 30.1263020833333  48.8823784722222 34.3929036458333  46.6471354166667 38.2998046875  C 44.4118923611111 42.2067057291667  41.3791232638889 45.3001302083333  37.548828125 47.580078125  C 33.7185329861111 49.8600260416667  29.5355902777778 51  25 51  C 20.4644097222222 51  16.2814670138889 49.8600260416667  12.451171875 47.580078125  C 8.62087673611111 45.3001302083333  5.58810763888889 42.2067057291667  3.35286458333333 38.2998046875  C 1.11762152777778 34.3929036458333  0 30.1263020833333  0 25.5  C 0 20.8736979166667  1.11762152777778 16.6070963541667  3.35286458333333 12.7001953125  C 5.58810763888889 8.79329427083333  8.62087673611111 5.69986979166666  12.451171875 3.419921875  Z M 19.7916666666667 37.951171875  L 37.5 27.326171875  C 38.1944444444444 26.927734375  38.5416666666667 26.3190104166667  38.5416666666667 25.5  C 38.5416666666667 24.6809895833333  38.1944444444444 24.072265625  37.5 23.673828125  L 19.7916666666667 13.048828125  C 19.1189236111111 12.6282552083333  18.4244791666667 12.6171875  17.7083333333333 13.015625  C 17.0138888888889 13.4361979166667  16.6666666666667 14.0559895833333  17 14.875  L 17 36.125  C 16.6666666666667 36.9440104166667  17.0138888888889 37.5638020833333  17.7083333333333 37.984375  C 18.0555555555556 38.1614583333333  18.4027777777778 38.25  18.75 38.25  C 19.1189236111111 38.25  19.4661458333333 38.150390625  19.7916666666667 37.951171875  Z " fill-rule="nonzero" fill="#000000" stroke="none" transform="matrix(1 0 0 1 66 49 )" />
  </g>
</svg>