<?xml version="1.0" encoding="utf-8"?>
<svg version="1.1" xmlns:xlink="http://www.w3.org/1999/xlink" width="7px" height="11px" xmlns="http://www.w3.org/2000/svg">
  <g transform="matrix(1 0 0 1 -95 -9 )">
    <path d="M 0.538461538461539 8.44642857142857  L 0.538461538461539 10.2142857142857  L 1.75 10.2142857142857  L 1.75 8.44642857142857  L 0.538461538461539 8.44642857142857  Z M 2.01923076923077 8.44642857142857  L 2.01923076923077 10.2142857142857  L 3.36538461538462 10.2142857142857  L 3.36538461538462 8.44642857142857  L 2.01923076923077 8.44642857142857  Z M 0.538461538461539 6.08928571428571  L 0.538461538461539 8.05357142857143  L 1.75 8.05357142857143  L 1.75 6.08928571428571  L 0.538461538461539 6.08928571428571  Z M 2.01923076923077 6.08928571428571  L 2.01923076923077 8.05357142857143  L 3.36538461538462 8.05357142857143  L 3.36538461538462 6.08928571428571  L 2.01923076923077 6.08928571428571  Z M 0.538461538461539 3.92857142857143  L 0.538461538461539 5.69642857142857  L 1.75 5.69642857142857  L 1.75 3.92857142857143  L 0.538461538461539 3.92857142857143  Z M 3.63461538461539 8.44642857142857  L 3.63461538461539 10.2142857142857  L 4.98076923076923 10.2142857142857  L 4.98076923076923 8.44642857142857  L 3.63461538461539 8.44642857142857  Z M 2.01923076923077 3.92857142857143  L 2.01923076923077 5.69642857142857  L 3.36538461538462 5.69642857142857  L 3.36538461538462 3.92857142857143  L 2.01923076923077 3.92857142857143  Z M 5.25 8.44642857142857  L 5.25 10.2142857142857  L 6.46153846153846 10.2142857142857  L 6.46153846153846 8.44642857142857  L 5.25 8.44642857142857  Z M 3.63461538461539 6.08928571428571  L 3.63461538461539 8.05357142857143  L 4.98076923076923 8.05357142857143  L 4.98076923076923 6.08928571428571  L 3.63461538461539 6.08928571428571  Z M 2.11388221153846 2.88811383928571  C 2.14052483974359 2.84923735119048  2.15384615384615 2.8031994047619  2.15384615384615 2.75  L 2.15384615384615 0.982142857142857  C 2.15384615384615 0.928943452380952  2.14052483974359 0.88290550595238  2.11388221153846 0.844029017857143  C 2.08723958333333 0.805152529761904  2.0556891025641 0.785714285714285  2.01923076923077 0.785714285714285  L 1.75 0.785714285714285  C 1.71354166666667 0.785714285714285  1.68199118589744 0.805152529761904  1.65534855769231 0.844029017857143  C 1.62870592948718 0.88290550595238  1.61538461538462 0.928943452380952  1.61538461538462 0.982142857142857  L 1.61538461538462 2.75  C 1.61538461538462 2.8031994047619  1.62870592948718 2.84923735119048  1.65534855769231 2.88811383928571  C 1.68199118589744 2.92699032738095  1.71354166666667 2.94642857142857  1.75 2.94642857142857  L 2.01923076923077 2.94642857142857  C 2.0556891025641 2.94642857142857  2.08723958333333 2.92699032738095  2.11388221153846 2.88811383928571  Z M 5.25 6.08928571428571  L 5.25 8.05357142857143  L 6.46153846153846 8.05357142857143  L 6.46153846153846 6.08928571428571  L 5.25 6.08928571428571  Z M 3.63461538461539 3.92857142857143  L 3.63461538461539 5.69642857142857  L 4.98076923076923 5.69642857142857  L 4.98076923076923 3.92857142857143  L 3.63461538461539 3.92857142857143  Z M 5.25 3.92857142857143  L 5.25 5.69642857142857  L 6.46153846153846 5.69642857142857  L 6.46153846153846 3.92857142857143  L 5.25 3.92857142857143  Z M 5.34465144230769 2.88811383928571  C 5.37129407051282 2.84923735119048  5.38461538461539 2.8031994047619  5.38461538461539 2.75  L 5.38461538461539 0.982142857142857  C 5.38461538461539 0.928943452380952  5.37129407051282 0.88290550595238  5.34465144230769 0.844029017857143  C 5.31800881410256 0.805152529761904  5.28645833333333 0.785714285714285  5.25 0.785714285714285  L 4.98076923076923 0.785714285714285  C 4.9443108974359 0.785714285714285  4.91276041666667 0.805152529761904  4.88611778846154 0.844029017857143  C 4.85947516025641 0.88290550595238  4.84615384615385 0.928943452380952  4.84615384615385 0.982142857142857  L 4.84615384615385 2.75  C 4.84615384615385 2.8031994047619  4.85947516025641 2.84923735119048  4.88611778846154 2.88811383928571  C 4.91276041666667 2.92699032738095  4.9443108974359 2.94642857142857  4.98076923076923 2.94642857142857  L 5.25 2.94642857142857  C 5.28645833333333 2.94642857142857  5.31800881410256 2.92699032738095  5.34465144230769 2.88811383928571  Z M 6.84014423076923 1.8046875  C 6.94671474358974 1.96019345238095  7 2.14434523809524  7 2.35714285714286  L 7 10.2142857142857  C 7 10.4270833333333  6.94671474358974 10.6112351190476  6.84014423076923 10.7667410714286  C 6.73357371794872 10.9222470238095  6.6073717948718 11  6.46153846153846 11  L 0.538461538461539 11  C 0.392628205128205 11  0.266426282051282 10.9222470238095  0.159855769230769 10.7667410714286  C 0.0532852564102564 10.6112351190476  0 10.4270833333333  0 10.2142857142857  L 0 2.35714285714286  C 0 2.14434523809524  0.0532852564102564 1.96019345238095  0.159855769230769 1.8046875  C 0.266426282051282 1.64918154761905  0.392628205128205 1.57142857142857  0.538461538461539 1.57142857142857  L 1.07692307692308 1.57142857142857  L 1.07692307692308 0.982142857142857  C 1.07692307692308 0.712053571428572  1.14282852564103 0.480840773809523  1.27463942307692 0.288504464285715  C 1.40645032051282 0.0961681547619049  1.56490384615385 0  1.75 0  L 2.01923076923077 0  C 2.20432692307692 0  2.36278044871795 0.0961681547619049  2.49459134615385 0.288504464285715  C 2.62640224358974 0.480840773809523  2.69230769230769 0.712053571428572  2.69230769230769 0.982142857142857  L 2.69230769230769 1.57142857142857  L 4.30769230769231 1.57142857142857  L 4.30769230769231 0.982142857142857  C 4.30769230769231 0.712053571428572  4.37359775641026 0.480840773809523  4.50540865384615 0.288504464285715  C 4.63721955128205 0.0961681547619049  4.79567307692308 0  4.98076923076923 0  L 5.25 0  C 5.43509615384615 0  5.59354967948718 0.0961681547619049  5.72536057692308 0.288504464285715  C 5.85717147435898 0.480840773809523  5.92307692307692 0.712053571428572  5.92307692307692 0.982142857142857  L 5.92307692307692 1.57142857142857  L 6.46153846153846 1.57142857142857  C 6.6073717948718 1.57142857142857  6.73357371794872 1.64918154761905  6.84014423076923 1.8046875  Z " fill-rule="nonzero" fill="#8c8c8c" stroke="none" transform="matrix(1 0 0 1 95 9 )" />
  </g>
</svg>