<?xml version="1.0" encoding="utf-8"?>
<svg version="1.1" xmlns:xlink="http://www.w3.org/1999/xlink" width="26px" height="24px" xmlns="http://www.w3.org/2000/svg">
  <g transform="matrix(1 0 0 1 -675 -20 )">
    <path d="M 19.703125 21.703125  C 19.9010416666667 21.5052083333333  20 21.2708333333333  20 21  C 20 20.7291666666667  19.9010416666667 20.4947916666667  19.703125 20.296875  C 19.5052083333333 20.0989583333333  19.2708333333333 20  19 20  C 18.7291666666667 20  18.4947916666667 20.0989583333333  18.296875 20.296875  C 18.0989583333333 20.4947916666667  18 20.7291666666667  18 21  C 18 21.2708333333333  18.0989583333333 21.5052083333333  18.296875 21.703125  C 18.4947916666667 21.9010416666667  18.7291666666667 22  19 22  C 19.2708333333333 22  19.5052083333333 21.9010416666667  19.703125 21.703125  Z M 23.703125 21.703125  C 23.9010416666667 21.5052083333333  24 21.2708333333333  24 21  C 24 20.7291666666667  23.9010416666667 20.4947916666667  23.703125 20.296875  C 23.5052083333333 20.0989583333333  23.2708333333333 20  23 20  C 22.7291666666667 20  22.4947916666667 20.0989583333333  22.296875 20.296875  C 22.0989583333333 20.4947916666667  22 20.7291666666667  22 21  C 22 21.2708333333333  22.0989583333333 21.5052083333333  22.296875 21.703125  C 22.4947916666667 21.9010416666667  22.7291666666667 22  23 22  C 23.2708333333333 22  23.5052083333333 21.9010416666667  23.703125 21.703125  Z M 25.5625 16.4375  C 25.8541666666667 16.7291666666667  26 17.0833333333333  26 17.5  L 26 22.5  C 26 22.9166666666667  25.8541666666667 23.2708333333333  25.5625 23.5625  C 25.2708333333333 23.8541666666667  24.9166666666667 24  24.5 24  L 1.5 24  C 1.08333333333333 24  0.729166666666667 23.8541666666667  0.4375 23.5625  C 0.145833333333333 23.2708333333333  0 22.9166666666667  0 22.5  L 0 17.5  C 0 17.0833333333333  0.145833333333333 16.7291666666667  0.4375 16.4375  C 0.729166666666667 16.1458333333333  1.08333333333333 16  1.5 16  L 8.765625 16  L 10.875 18.125  C 11.4791666666667 18.7083333333333  12.1875 19  13 19  C 13.8125 19  14.5208333333333 18.7083333333333  15.125 18.125  L 17.25 16  L 24.5 16  C 24.9166666666667 16  25.2708333333333 16.1458333333333  25.5625 16.4375  Z M 20 8  C 20.4375 8  20.7447916666667 8.203125  20.921875 8.609375  C 21.0989583333333 9.03645833333333  21.0260416666667 9.40104166666667  20.703125 9.703125  L 13.703125 16.703125  C 13.515625 16.9010416666667  13.28125 17  13 17  C 12.71875 17  12.484375 16.9010416666667  12.296875 16.703125  L 5.296875 9.703125  C 4.97395833333333 9.40104166666667  4.90104166666667 9.03645833333333  5.078125 8.609375  C 5.25520833333333 8.203125  5.5625 8  6 8  L 10 8  L 10 0.999999999999999  C 10 0.729166666666663  10.0989583333333 0.494791666666663  10.296875 0.296874999999999  C 10.4947916666667 0.0989583333333348  10.7291666666667 0  11 0  L 15 0  C 15.2708333333333 0  15.5052083333333 0.0989583333333348  15.703125 0.296874999999999  C 15.9010416666667 0.494791666666663  16 0.729166666666663  16 0.999999999999999  L 16 8  L 20 8  Z " fill-rule="nonzero" fill="#000000" stroke="none" transform="matrix(1 0 0 1 675 20 )" />
  </g>
</svg>