<?xml version="1.0" encoding="utf-8"?>
<svg version="1.1" xmlns:xlink="http://www.w3.org/1999/xlink" width="47px" height="13px" xmlns="http://www.w3.org/2000/svg">
  <defs>
    <mask fill="white" id="clip74">
      <path d="M 0 13  L 0 0  L 31.725 0  L 32.1471861471862 0  L 34.075 0  L 47 0  L 47 13  L 37.6 13  L 18.0769230769231 13  L 0 13  Z " fill-rule="evenodd" />
    </mask>
  </defs>
  <g transform="matrix(1 0 0 1 -18 -449 )">
    <path d="M 0 13  L 0 0  L 31.725 0  L 32.1471861471862 0  L 34.075 0  L 47 0  L 47 13  L 37.6 13  L 18.0769230769231 13  L 0 13  Z " fill-rule="nonzero" fill="#d9001b" stroke="none" transform="matrix(1 0 0 1 18 449 )" />
    <path d="M 0 13  L 0 0  L 31.725 0  L 32.1471861471862 0  L 34.075 0  L 47 0  L 47 13  L 37.6 13  L 18.0769230769231 13  L 0 13  Z " stroke-width="2" stroke="#d9001b" fill="none" transform="matrix(1 0 0 1 18 449 )" mask="url(#clip74)" />
  </g>
</svg>