<?xml version="1.0" encoding="utf-8"?>
<svg version="1.1" xmlns:xlink="http://www.w3.org/1999/xlink" width="48px" height="42px" xmlns="http://www.w3.org/2000/svg">
  <g transform="matrix(1 0 0 1 -232 -914 )">
    <path d="M 34.5288461538462 14.7059659090909  C 34.8942307692308 14.328125  35.0769230769231 13.8806818181818  35.0769230769231 13.3636363636364  C 35.0769230769231 12.8465909090909  34.8942307692308 12.3991477272727  34.5288461538462 12.0213068181818  C 34.1634615384615 11.6434659090909  33.7307692307692 11.4545454545455  33.2307692307692 11.4545454545455  L 29.5384615384615 11.4545454545455  L 29.5384615384615 7.63636363636363  C 29.5384615384615 7.11931818181818  29.3557692307692 6.67187499999999  28.9903846153846 6.29403409090909  C 28.625 5.91619318181818  28.1923076923077 5.72727272727273  27.6923076923077 5.72727272727273  C 27.1923076923077 5.72727272727273  26.7596153846154 5.91619318181818  26.3942307692308 6.29403409090909  C 26.0288461538462 6.67187499999999  25.8461538461538 7.11931818181818  25.8461538461538 7.63636363636363  L 25.8461538461538 11.4545454545455  L 22.1538461538462 11.4545454545455  C 21.6538461538462 11.4545454545455  21.2211538461539 11.6434659090909  20.8557692307692 12.0213068181818  C 20.4903846153846 12.3991477272727  20.3076923076923 12.8465909090909  20.3076923076923 13.3636363636364  C 20.3076923076923 13.8806818181818  20.4903846153846 14.328125  20.8557692307692 14.7059659090909  C 21.2211538461539 15.0838068181818  21.6538461538462 15.2727272727273  22.1538461538462 15.2727272727273  L 25.8461538461538 15.2727272727273  L 25.8461538461538 19.0909090909091  C 25.8461538461538 19.6079545454545  26.0288461538462 20.0553977272727  26.3942307692308 20.4332386363636  C 26.7596153846154 20.8110795454545  27.1923076923077 21  27.6923076923077 21  C 28.1923076923077 21  28.625 20.8110795454545  28.9903846153846 20.4332386363636  C 29.3557692307692 20.0553977272727  29.5384615384615 19.6079545454545  29.5384615384615 19.0909090909091  L 29.5384615384615 15.2727272727273  L 33.2307692307692 15.2727272727273  C 33.7307692307692 15.2727272727273  34.1634615384615 15.0838068181818  34.5288461538462 14.7059659090909  Z M 17.3798076923077 35.4822443181818  C 18.1009615384615 36.2279829545455  18.4615384615385 37.1278409090909  18.4615384615385 38.1818181818182  C 18.4615384615385 39.2357954545455  18.1009615384615 40.1356534090909  17.3798076923077 40.8813920454545  C 16.6586538461538 41.6271306818182  15.7884615384615 42  14.7692307692308 42  C 13.75 42  12.8798076923077 41.6271306818182  12.1586538461538 40.8813920454545  C 11.4375 40.1356534090909  11.0769230769231 39.2357954545455  11.0769230769231 38.1818181818182  C 11.0769230769231 37.1278409090909  11.4375 36.2279829545455  12.1586538461538 35.4822443181818  C 12.8798076923077 34.7365056818182  13.75 34.3636363636364  14.7692307692308 34.3636363636364  C 15.7884615384615 34.3636363636364  16.6586538461538 34.7365056818182  17.3798076923077 35.4822443181818  Z M 43.2259615384615 35.4822443181818  C 43.9471153846154 36.2279829545455  44.3076923076923 37.1278409090909  44.3076923076923 38.1818181818182  C 44.3076923076923 39.2357954545455  43.9471153846154 40.1356534090909  43.2259615384615 40.8813920454545  C 42.5048076923077 41.6271306818182  41.6346153846154 42  40.6153846153846 42  C 39.5961538461538 42  38.7259615384615 41.6271306818182  38.0048076923077 40.8813920454545  C 37.2836538461538 40.1356534090909  36.9230769230769 39.2357954545455  36.9230769230769 38.1818181818182  C 36.9230769230769 37.1278409090909  37.2836538461538 36.2279829545455  38.0048076923077 35.4822443181818  C 38.7259615384615 34.7365056818182  39.5961538461538 34.3636363636364  40.6153846153846 34.3636363636364  C 41.6346153846154 34.3636363636364  42.5048076923077 34.7365056818182  43.2259615384615 35.4822443181818  Z M 47.4519230769231 4.38494318181818  C 47.8173076923077 4.76278409090909  48 5.21022727272727  48 5.72727272727273  L 48 21  C 48 21.4772727272727  47.8461538461538 21.8998579545455  47.5384615384615 22.2677556818182  C 47.2307692307692 22.6356534090909  46.8365384615385 22.8494318181818  46.3557692307692 22.9090909090909  L 16.2403846153846 26.5482954545455  C 16.2596153846154 26.6875  16.3028846153846 26.9012784090909  16.3701923076923 27.1896306818182  C 16.4375 27.4779829545454  16.4951923076923 27.7414772727273  16.5432692307692 27.9801136363636  C 16.5913461538462 28.21875  16.6153846153846 28.4375  16.6153846153846 28.6363636363636  C 16.6153846153846 28.9545454545454  16.3846153846154 29.5909090909091  15.9230769230769 30  L 42.4615384615385 30  C 42.9615384615385 30.5454545454545  43.3942307692308 30.734375  43.7596153846154 31.1122159090909  C 44.125 31.4900568181818  44.3076923076923 31.9375  44.3076923076923 32.4545454545455  C 44.3076923076923 32.9715909090909  44.125 33.4190340909091  43.7596153846154 33.796875  C 43.3942307692308 34.1747159090909  42.9615384615385 34.3636363636364  42.4615384615385 34  L 12.9230769230769 34  C 12.4230769230769 34.3636363636364  11.9903846153846 34.1747159090909  11.625 33.796875  C 11.2596153846154 33.4190340909091  11.0769230769231 32.9715909090909  11.0769230769231 32.4545454545455  C 11.0769230769231 32.1761363636364  11.1826923076923 31.7833806818182  11.3942307692308 31.2762784090909  C 11.6057692307692 30.7691761363636  11.8894230769231 30.1775568181818  12.2451923076923 29.5014204545455  C 12.6009615384615 28.8252840909091  12.7980769230769 28.4474431818182  12.8365384615385 28.3678977272727  L 7.73076923076923 3.81818181818182  L 1.84615384615385 3.81818181818182  C 1.34615384615385 3.81818181818182  0.913461538461539 3.62926136363636  0.548076923076923 3.25142045454545  C 0.182692307692308 2.87357954545454  0 2.42613636363636  0 1.90909090909091  C 0 1.39204545454545  0.182692307692308 0.944602272727267  0.548076923076923 0.566761363636366  C 0.913461538461539 0.188920454545451  1.34615384615385 0  1.84615384615385 0  L 9.23076923076923 0  C 9.53846153846154 0  9.8125 0.064630681818179  10.0528846153846 0.193892045454546  C 10.2932692307692 0.323153409090909  10.4855769230769 0.477272727272727  10.6298076923077 0.65625  C 10.7740384615385 0.835227272727273  10.8990384615385 1.07883522727272  11.0048076923077 1.38707386363637  C 11.1105769230769 1.6953125  11.1826923076923 1.95880681818181  11.2211538461538 2.17755681818182  C 11.2596153846154 2.39630681818182  11.3125 2.68963068181818  11.3798076923077 3.05752840909091  C 11.4471153846154 3.42542613636364  11.4903846153846 3.67897727272727  11.5096153846154 4  L 46.1538461538462 4  C 46.6538461538462 3.81818181818182  47.0865384615385 4.00710227272727  47.4519230769231 4.38494318181818  Z " fill-rule="nonzero" fill="#7f7f7f" stroke="none" transform="matrix(1 0 0 1 232 914 )" />
  </g>
</svg>