<?xml version="1.0" encoding="utf-8"?>
<svg version="1.1" xmlns:xlink="http://www.w3.org/1999/xlink" width="31px" height="28px" xmlns="http://www.w3.org/2000/svg">
  <g transform="matrix(1 0 0 1 -119 -18 )">
    <path d="M 30.2693602693603 20.9292929292929  C 30.7564534231201 21.3692480359147  31 21.9034792368126  31 22.5319865319865  C 31 23.1604938271605  30.7564534231201 23.6947250280584  30.2693602693603 24.1346801346801  L 26.7205387205387 27.3400673400673  C 26.2334455667789 27.7800224466891  25.641975308642 28  24.9461279461279 28  C 24.2502805836139 28  23.658810325477 27.7800224466891  23.1717171717172 27.3400673400673  L 15.5 20.4107744107744  L 7.82828282828283 27.3400673400673  C 7.34118967452301 27.7800224466891  6.74971941638608 28  6.05387205387205 28  C 5.35802469135803 28  4.7665544332211 27.7800224466891  4.27946127946128 27.3400673400673  L 0.730639730639731 24.1346801346801  C 0.24354657687991 23.6947250280584  0 23.1604938271605  0 22.5319865319865  C 0 21.9034792368126  0.24354657687991 21.3692480359147  0.730639730639731 20.9292929292929  L 8.4023569023569 14  L 0.730639730639731 7.07070707070707  C 0.24354657687991 6.6307519640853  0 6.09652076318743  0 5.46801346801347  C 0 4.83950617283951  0.24354657687991 4.30527497194163  0.730639730639731 3.86531986531987  L 4.27946127946128 0.65993265993266  C 4.7665544332211 0.219977553310886  5.35802469135803 0  6.05387205387205 0  C 6.74971941638608 0  7.34118967452301 0.219977553310886  7.82828282828283 0.65993265993266  L 15.5 7.58922558922559  L 23.1717171717172 0.65993265993266  C 23.658810325477 0.219977553310886  24.2502805836139 0  24.9461279461279 0  C 25.641975308642 0  26.2334455667789 0.219977553310886  26.7205387205387 0.65993265993266  L 30.2693602693603 3.86531986531987  C 30.7564534231201 4.30527497194163  31 4.83950617283951  31 5.46801346801347  C 31 6.09652076318743  30.7564534231201 6.6307519640853  30.2693602693603 7.07070707070707  L 22.5976430976431 14  L 30.2693602693603 20.9292929292929  Z " fill-rule="nonzero" fill="#d9001b" stroke="none" transform="matrix(1 0 0 1 119 18 )" />
  </g>
</svg>