<?xml version="1.0" encoding="utf-8"?>
<svg version="1.1" xmlns:xlink="http://www.w3.org/1999/xlink" width="29px" height="35px" xmlns="http://www.w3.org/2000/svg">
  <g transform="matrix(1 0 0 1 -119 -14 )">
    <path d="M 20.0130208333333 1.328125  L 27.7161458333333 9.296875  C 27.8923611111111 9.47916666666666  28.0685763888889 9.71354166666666  28.2447916666667 10  L 19.3333333333333 10  L 19.3333333333333 0.781250000000001  C 19.6102430555556 0.963541666666665  19.8368055555556 1.14583333333333  20.0130208333333 1.328125  Z M 17.4453125 11.953125  C 17.7977430555556 12.3177083333333  18.2256944444444 12.5  18.7291666666667 13  L 29 13  L 29 33.125  C 29 33.6458333333333  28.8237847222222 34.0885416666667  28.4713541666667 34.453125  C 28.1189236111111 34.8177083333333  27.6909722222222 35  27.1875 35  L 1.8125 35  C 1.30902777777778 35  0.881076388888889 34.8177083333333  0.528645833333333 34.453125  C 0.176215277777778 34.0885416666667  0 33.6458333333333  0 33.125  L 0 1.875  C 0 1.35416666666667  0.176215277777778 0.911458333333332  0.528645833333333 0.546875  C 0.881076388888889 0.182291666666668  1.30902777777778 0  1.8125 0  L 17 0  L 17 10.625  C 16.9166666666667 11.1458333333333  17.0928819444444 11.5885416666667  17.4453125 11.953125  Z M 21.580078125 27.32421875  C 21.693359375 27.20703125  21.75 27.0572916666667  21.75 26.875  L 21.75 25.625  C 21.75 25.4427083333333  21.693359375 25.29296875  21.580078125 25.17578125  C 21.466796875 25.05859375  21.3220486111111 25  21.1458333333333 25  L 7.85416666666667 25  C 7.67795138888889 25  7.533203125 25.05859375  7.419921875 25.17578125  C 7.306640625 25.29296875  7.25 25.4427083333333  7.25 25.625  L 7.25 26.875  C 7.25 27.0572916666667  7.306640625 27.20703125  7.419921875 27.32421875  C 7.533203125 27.44140625  7.67795138888889 27.5  7.85416666666667 27  L 21.1458333333333 27  C 21.3220486111111 27.5  21.466796875 27.44140625  21.580078125 27.32421875  Z M 21.580078125 22.32421875  C 21.693359375 22.20703125  21.75 22.0572916666667  21.75 21.875  L 21.75 20.625  C 21.75 20.4427083333333  21.693359375 20.29296875  21.580078125 20.17578125  C 21.466796875 20.05859375  21.3220486111111 20  21.1458333333333 20  L 7.85416666666667 20  C 7.67795138888889 20  7.533203125 20.05859375  7.419921875 20.17578125  C 7.306640625 20.29296875  7.25 20.4427083333333  7.25 20.625  L 7.25 21.875  C 7.25 22.0572916666667  7.306640625 22.20703125  7.419921875 22.32421875  C 7.533203125 22.44140625  7.67795138888889 22.5  7.85416666666667 22  L 21.1458333333333 22  C 21.3220486111111 22.5  21.466796875 22.44140625  21.580078125 22.32421875  Z M 21.580078125 17.32421875  C 21.693359375 17.20703125  21.75 17.0572916666667  21.75 16.875  L 21.75 15.625  C 21.75 15.4427083333333  21.693359375 15.29296875  21.580078125 15.17578125  C 21.466796875 15.05859375  21.3220486111111 15  21.1458333333333 15  L 7.85416666666667 15  C 7.67795138888889 15  7.533203125 15.05859375  7.419921875 15.17578125  C 7.306640625 15.29296875  7.25 15.4427083333333  7.25 15.625  L 7.25 16.875  C 7.25 17.0572916666667  7.306640625 17.20703125  7.419921875 17.32421875  C 7.533203125 17.44140625  7.67795138888889 17.5  7.85416666666667 17  L 21.1458333333333 17  C 21.3220486111111 17.5  21.466796875 17.44140625  21.580078125 17.32421875  Z " fill-rule="nonzero" fill="#000000" stroke="none" transform="matrix(1 0 0 1 119 14 )" />
  </g>
</svg>