<?xml version="1.0" encoding="utf-8"?>
<svg version="1.1" xmlns:xlink="http://www.w3.org/1999/xlink" width="27px" height="33px" xmlns="http://www.w3.org/2000/svg">
  <g transform="matrix(1 0 0 1 -154 -16 )">
    <path d="M 26.4630681818182 12.65625  C 26.8210227272727 13.09375  27 13.625  27 14.25  L 27 18.75  C 27 19.375  26.8210227272727 19.90625  26.4630681818182 20.34375  C 26.1051136363636 20.78125  25.6704545454545 21  25.1590909090909 21  L 17.1818181818182 21  L 17.1818181818182 30.75  C 17.1818181818182 31.375  17.0028409090909 31.90625  16.6448863636364 32.34375  C 16.2869318181818 32.78125  15.8522727272727 33  15.3409090909091 33  L 11.6590909090909 33  C 11.1477272727273 33  10.7130681818182 32.78125  10.3551136363636 32.34375  C 9.99715909090909 31.90625  9.81818181818182 31.375  9.81818181818182 30.75  L 9.81818181818182 21  L 1.84090909090909 21  C 1.32954545454545 21  0.894886363636364 20.78125  0.536931818181818 20.34375  C 0.178977272727273 19.90625  0 19.375  0 18.75  L 0 14.25  C 0 13.625  0.178977272727273 13.09375  0.536931818181818 12.65625  C 0.894886363636364 12.21875  1.32954545454545 12  1.84090909090909 12  L 9.81818181818182 12  L 9.81818181818182 2.25  C 9.81818181818182 1.625  9.99715909090909 1.09375  10.3551136363636 0.65625  C 10.7130681818182 0.218749999999999  11.1477272727273 0  11.6590909090909 0  L 15.3409090909091 0  C 15.8522727272727 0  16.2869318181818 0.218749999999999  16.6448863636364 0.65625  C 17.0028409090909 1.09375  17.1818181818182 1.625  17.1818181818182 2.25  L 17.1818181818182 12  L 25.1590909090909 12  C 25.6704545454545 12  26.1051136363636 12.21875  26.4630681818182 12.65625  Z " fill-rule="nonzero" fill="#000000" stroke="none" transform="matrix(1 0 0 1 154 16 )" />
  </g>
</svg>