<?xml version="1.0" encoding="utf-8"?>
<svg version="1.1" xmlns:xlink="http://www.w3.org/1999/xlink" width="9px" height="17px" xmlns="http://www.w3.org/2000/svg">
  <g transform="matrix(1 0 0 1 -147 -319 )">
    <path d="M 8.87473233404711 10.3498883928571  C 8.95824411134904 10.628162202381  9 10.9254092261905  9 11.2416294642857  C 9 12.2092633928571  8.6804068522484 13.0425037202381  8.04122055674518 13.7413504464286  C 7.40203426124197 14.440197172619  6.57173447537473 14.871837797619  5.55032119914347 15.0362723214286  L 5.55032119914347 16.6964285714286  C 5.55032119914347 16.7849702380952  5.52141327623126 16.8577008928571  5.46359743040685 16.9146205357143  C 5.40578158458244 16.9715401785714  5.33190578158458 17  5.24197002141328 17  L 3.94111349036403 17  C 3.8576017130621 17  3.78533190578159 16.969959077381  3.72430406852248 16.9098772321429  C 3.66327623126338 16.8497953869048  3.63276231263383 16.7786458333333  3.63276231263383 16.6964285714286  L 3.63276231263383 15.0362723214286  C 3.20877944325482 14.9793526785714  2.79925053533191 14.8813244047619  2.4041755888651 14.7421875  C 2.00910064239829 14.6030505952381  1.6830835117773 14.4623325892857  1.42612419700214 14.3200334821429  C 1.16916488222698 14.177734375  0.931477516059957 14.0259486607143  0.713062098501071 13.8646763392857  C 0.494646680942184 13.7034040178571  0.345289079229122 13.5848214285714  0.264989293361884 13.5089285714286  C 0.184689507494647 13.4330357142857  0.12847965738758 13.3761160714286  0.0963597430406852 13.3381696428571  C -0.012847965738758 13.2053571428571  -0.019271948608137 13.0757068452381  0.0770877944325482 12.94921875  L 1.06959314775161 11.6685267857143  C 1.11456102783726 11.6052827380952  1.18843683083512 11.5673363095238  1.29122055674518 11.5546875  C 1.38758029978587 11.5420386904762  1.46466809421842 11.5704985119048  1.52248394004283 11.6400669642857  L 1.54175588865096 11.6590401785714  C 2.26766595289079 12.28515625  3.04817987152034 12.680431547619  3.88329764453961 12.8448660714286  C 4.12098501070664 12.8954613095238  4.35867237687366 12.9207589285714  4.59635974304068 12.9207589285714  C 5.11670235546038 12.9207589285714  5.57441113490364 12.7847842261905  5.96948608137045 12.5128348214286  C 6.36456102783726 12.2408854166667  6.56209850107066 11.8550967261905  6.56209850107066 11.35546875  C 6.56209850107066 11.1783854166667  6.51391862955032 11.0107886904762  6.41755888650964 10.8526785714286  C 6.32119914346895 10.694568452381  6.21359743040685 10.561755952381  6.09475374732334 10.4542410714286  C 5.97591006423983 10.3467261904762  5.78800856531049 10.2281436011905  5.53104925053533 10.0984933035714  C 5.27408993576017 9.96884300595238  5.06209850107066 9.8676525297619  4.89507494646681 9.794921875  C 4.72805139186296 9.72219122023809  4.47109207708779 9.61941964285714  4.12419700214133 9.48660714285714  C 3.87366167023555 9.38541666666667  3.67612419700214 9.30636160714286  3.53158458244111 9.24944196428571  C 3.38704496788009 9.19252232142857  3.18950749464668 9.10872395833333  2.9389721627409 8.998046875  C 2.68843683083512 8.88736979166667  2.48768736616702 8.78934151785714  2.33672376873662 8.70396205357143  C 2.18576017130621 8.61858258928571  2.00428265524625 8.5063244047619  1.79229122055675 8.3671875  C 1.58029978586724 8.22805059523809  1.40845824411135 8.09365699404762  1.27676659528908 7.96400669642857  C 1.14507494646681 7.83435639880952  1.00535331905782 7.67940848214286  0.857601713062099 7.49916294642857  C 0.709850107066381 7.31891741071428  0.595824411134904 7.13550967261905  0.515524625267666 6.94893973214286  C 0.435224839400428 6.76236979166667  0.367773019271949 6.55208333333333  0.313169164882227 6.31808035714286  C 0.258565310492505 6.08407738095238  0.231263383297645 5.83742559523809  0.231263383297645 5.578125  C 0.231263383297645 4.70535714285714  0.546038543897216 3.94010416666667  1.17558886509636 3.28236607142857  C 1.8051391862955 2.62462797619047  2.62419700214133 2.20089285714286  3.63276231263383 2.01116071428571  L 3.63276231263383 0.303571428571429  C 3.63276231263383 0.221354166666665  3.66327623126338 0.150204613095238  3.72430406852248 0.0901227678571431  C 3.78533190578159 0.0300409226190483  3.8576017130621 0  3.94111349036403 0  L 5.24197002141328 0  C 5.33190578158458 0  5.40578158458244 0.0284598214285706  5.46359743040685 0.0853794642857137  C 5.52141327623126 0.142299107142857  5.55032119914347 0.21502976190476  5.55032119914347 0.303571428571429  L 5.55032119914347 1.97321428571429  C 5.91648822269807 2.01116071428571  6.27141327623126 2.08389136904762  6.61509635974304 2.19140625  C 6.95877944325482 2.29892113095238  7.23822269807281 2.40485491071429  7.453426124197 2.50920758928571  C 7.6686295503212 2.61356026785714  7.87259100642398 2.73214285714286  8.06531049250535 2.86495535714286  C 8.25802997858672 2.99776785714286  8.38329764453962 3.08947172619047  8.44111349036402 3.14006696428571  C 8.49892933618844 3.19066220238095  8.54710920770878 3.23493303571429  8.58565310492505 3.27287946428571  C 8.6948608137045 3.38671875  8.71092077087794 3.50688244047619  8.6338329764454 3.63337053571429  L 7.85331905781585 5.01841517857143  C 7.80192719486081 5.11328125  7.72805139186296 5.16387648809524  7.63169164882227 5.17020089285714  C 7.54175588865096 5.18917410714286  7.45503211991435 5.16703869047619  7.37152034261242 5.10379464285714  C 7.35224839400428 5.08482142857143  7.30567451820129 5.046875  7.23179871520343 4.98995535714286  C 7.15792291220557 4.93303571428571  7.03265524625268 4.84923735119047  6.85599571734475 4.73856026785714  C 6.67933618843683 4.62788318452381  6.49143468950749 4.52669270833333  6.29229122055674 4.43498883928571  C 6.093147751606 4.34328497023809  5.85385438972163 4.26106770833333  5.57441113490364 4.18833705357143  C 5.29496788008565 4.11560639880952  5.0203426124197 4.07924107142857  4.75053533190578 4.07924107142857  C 4.14025695931478 4.07924107142857  3.6423982869379 4.21521577380952  3.25695931477516 4.48716517857143  C 2.87152034261242 4.75911458333333  2.67880085653105 5.11011904761905  2.67880085653105 5.54017857142857  C 2.67880085653105 5.70461309523809  2.70610278372591 5.85639880952381  2.76070663811563 5.99553571428571  C 2.81531049250535 6.13467261904762  2.91006423982869 6.26590401785714  3.04496788008565 6.38922991071429  C 3.17987152034261 6.51255580357143  3.30674518201285 6.61690848214286  3.42558886509636 6.70228794642857  C 3.54443254817987 6.78766741071429  3.72430406852248 6.88569568452381  3.9652034261242 6.99637276785714  C 4.20610278372591 7.10704985119047  4.40042826552463 7.19242931547619  4.54817987152034 7.25251116071429  C 4.69593147751606 7.31259300595238  4.92077087794433 7.39955357142857  5.22269807280514 7.51339285714286  C 5.56316916488223 7.63988095238095  5.82334047109208 7.73949032738095  6.00321199143469 7.81222098214286  C 6.1830835117773 7.88495163690476  6.4271948608137 7.99562872023809  6.7355460385439 8.14425223214286  C 7.04389721627409 8.29287574404762  7.28640256959315 8.42726934523809  7.46306209850107 8.54743303571429  C 7.63972162740899 8.66759672619048  7.83886509635974 8.82570684523809  8.06049250535332 9.02176339285714  C 8.2821199143469 9.21781994047619  8.45235546038544 9.41861979166667  8.57119914346895 9.62416294642857  C 8.69004282655246 9.82970610119048  8.79122055674518 10.0716145833333  8.87473233404711 10.3498883928571  Z " fill-rule="nonzero" fill="#d9001b" stroke="none" transform="matrix(1 0 0 1 147 319 )" />
  </g>
</svg>