<?xml version="1.0" encoding="utf-8"?>
<svg version="1.1" xmlns:xlink="http://www.w3.org/1999/xlink" width="11px" height="14px" xmlns="http://www.w3.org/2000/svg">
  <g transform="matrix(1 0 0 1 -405 -378 )">
    <path d="M 10.8468950749465 8.5234375  C 10.9489650249822 8.75260416666667  11 8.99739583333333  11 9.2578125  C 11 10.0546875  10.609386152748 10.7408854166667  9.82815845824411 11.31640625  C 9.04693076374019 11.8919270833333  8.03211991434689 12.2473958333333  6.78372591006424 12.3828125  L 6.78372591006424 13.75  C 6.78372591006424 13.8229166666667  6.74839400428266 13.8828125  6.67773019271949 13.9296875  C 6.60706638115632 13.9765625  6.51677373304782 14  6.406852248394 14  L 4.8169164882227 14  C 4.71484653818701 14  4.62651677373305 13.9752604166667  4.55192719486081 13.92578125  C 4.47733761598858 13.8763020833333  4.44004282655246 13.8177083333333  4.44004282655246 13.75  L 4.44004282655246 12.3828125  C 3.92184154175589 12.3359375  3.42130620985011 12.2552083333333  2.93843683083512 12.140625  C 2.45556745182013 12.0260416666667  2.05710206995004 11.91015625  1.74304068522484 11.79296875  C 1.42897930049964 11.67578125  1.13847251962884 11.55078125  0.87152034261242 11.41796875  C 0.604568165596003 11.28515625  0.422019985724483 11.1875  0.323875802997859 11.125  C 0.225731620271235 11.0625  0.157030692362598 11.015625  0.117773019271949 10.984375  C -0.0157030692362598 10.875  -0.0235546038543897 10.7682291666667  0.0942184154175589 10.6640625  L 1.30728051391863 9.609375  C 1.36224125624554 9.55729166666667  1.45253390435403 9.52604166666667  1.57815845824411 9.515625  C 1.69593147751606 9.50520833333333  1.79014989293362 9.52864583333333  1.86081370449679 9.5859375  L 1.88436830835118 9.6015625  C 2.77159172019986 10.1171875  3.72555317630264 10.4427083333333  4.74625267665953 10.578125  C 5.03675945753034 10.6197916666667  5.32726623840114 10.640625  5.61777301927195 10.640625  C 6.25374732334047 10.640625  6.81316916488223 10.5286458333333  7.29603854389722 10.3046875  C 7.77890792291221 10.0807291666667  8.0203426124197 9.76302083333333  8.0203426124197 9.3515625  C 8.0203426124197 9.20572916666667  7.96145610278373 9.06770833333333  7.84368308351178 8.9375  C 7.72591006423983 8.80729166666667  7.59439685938615 8.69791666666667  7.44914346895075 8.609375  C 7.30389007851535 8.52083333333333  7.07423269093505 8.42317708333333  6.76017130620985 8.31640625  C 6.44610992148465 8.20963541666666  6.18700927908637 8.12630208333333  5.98286937901499 8.06640625  C 5.77872947894361 8.00651041666667  5.46466809421841 7.921875  5.0406852248394 7.8125  C 4.73447537473233 7.72916666666667  4.49304068522484 7.6640625  4.31638115631692 7.6171875  C 4.13972162740899 7.5703125  3.8982869379015 7.50130208333333  3.59207708779443 7.41015625  C 3.28586723768737 7.31901041666667  3.04050678087081 7.23828125  2.85599571734475 7.16796875  C 2.6714846538187 7.09765625  2.44967880085653 7.00520833333333  2.19057815845824 6.890625  C 1.93147751605996 6.77604166666667  1.72144896502498 6.66536458333333  1.56049250535332 6.55859375  C 1.39953604568166 6.45182291666667  1.22876516773733 6.32421875  1.04817987152034 6.17578125  C 0.867594575303355 6.02734375  0.728229835831549 5.87630208333333  0.630085653104925 5.72265625  C 0.531941470378301 5.56901041666667  0.449500356887937 5.39583333333333  0.382762312633833 5.203125  C 0.316024268379729 5.01041666666667  0.282655246252677 4.80729166666667  0.282655246252677 4.59375  C 0.282655246252677 3.875  0.667380442541042 3.24479166666667  1.43683083511777 2.703125  C 2.2062812276945 2.16145833333333  3.20735189150607 1.8125  4.44004282655246 1.65625  L 4.44004282655246 0.250000000000001  C 4.44004282655246 0.182291666666666  4.47733761598858 0.123697916666667  4.55192719486081 0.0742187500000002  C 4.62651677373305 0.0247395833333339  4.71484653818701 0  4.8169164882227 0  L 6.406852248394 0  C 6.51677373304782 0  6.60706638115632 0.0234374999999993  6.67773019271949 0.0703124999999996  C 6.74839400428266 0.1171875  6.78372591006424 0.177083333333332  6.78372591006424 0.250000000000001  L 6.78372591006424 1.625  C 7.23126338329764 1.65625  7.66506067094932 1.71614583333333  8.08511777301927 1.8046875  C 8.50517487508922 1.89322916666667  8.84671663097787 1.98046875  9.10974304068523 2.06640625  C 9.37276945039258 2.15234375  9.6220556745182 2.25  9.8576017130621 2.359375  C 10.093147751606 2.46875  10.2462526766595 2.54427083333333  10.3169164882227 2.5859375  C 10.3875802997859 2.62760416666667  10.4464668094218 2.6640625  10.4935760171306 2.6953125  C 10.6270521056388 2.7890625  10.6466809421842 2.88802083333333  10.5524625267666 2.9921875  L 9.59850107066381 4.1328125  C 9.53568879371877 4.2109375  9.44539614561028 4.25260416666667  9.32762312633833 4.2578125  C 9.21770164168451 4.2734375  9.11170592433976 4.25520833333333  9.00963597430407 4.203125  C 8.98608137044968 4.1875  8.92915774446824 4.15625  8.83886509635974 4.109375  C 8.74857244825125 4.0625  8.59546752319772 3.99348958333333  8.37955032119914 3.90234375  C 8.16363311920057 3.81119791666667  7.93397573162027 3.72786458333333  7.69057815845824 3.65234375  C 7.44718058529622 3.57682291666667  7.15471092077088 3.50911458333333  6.81316916488223 3.44921875  C 6.47162740899358 3.38932291666667  6.13597430406852 3.359375  5.80620985010707 3.359375  C 5.06031406138473 3.359375  4.45182012847966 3.47135416666667  3.98072805139186 3.6953125  C 3.50963597430407 3.91927083333333  3.27408993576017 4.20833333333333  3.27408993576017 4.5625  C 3.27408993576017 4.69791666666667  3.30745895788722 4.82291666666667  3.37419700214133 4.9375  C 3.44093504639543 5.05208333333333  3.55674518201285 5.16015625  3.72162740899358 5.26171875  C 3.8865096359743 5.36328125  4.04157744468237 5.44921875  4.18683083511777 5.51953125  C 4.33208422555318 5.58984375  4.55192719486081 5.67057291666667  4.84635974304069 5.76171875  C 5.14079229122056 5.85286458333333  5.37830121341899 5.92317708333333  5.55888650963597 5.97265625  C 5.73947180585296 6.02213541666667  6.01427551748751 6.09375  6.38329764453962 6.1875  C 6.7994289793005 6.29166666666667  7.11741613133476 6.37369791666667  7.3372591006424 6.43359375  C 7.55710206995004 6.49348958333333  7.85546038543897 6.58463541666667  8.23233404710921 6.70703125  C 8.60920770877944 6.82942708333333  8.90560314061385 6.94010416666667  9.12152034261242 7.0390625  C 9.33743754461099 7.13802083333333  9.58083511777302 7.26822916666667  9.8517130620985 7.4296875  C 10.122591006424 7.59114583333333  10.3306566738044 7.75651041666667  10.4759100642398 7.92578125  C 10.6211634546752 8.09505208333333  10.7448251249108 8.29427083333333  10.8468950749465 8.5234375  Z " fill-rule="nonzero" fill="#d9001b" stroke="none" transform="matrix(1 0 0 1 405 378 )" />
  </g>
</svg>