<?xml version="1.0" encoding="utf-8"?>
<svg version="1.1" xmlns:xlink="http://www.w3.org/1999/xlink" width="49px" height="46px" xmlns="http://www.w3.org/2000/svg">
  <g transform="matrix(1 0 0 1 -301 -231 )">
    <path d="M 48.0255681818182 17.6420454545455  C 48.6751893939394 18.2518939393939  49 18.9924242424242  49 19.8636363636364  L 49 26.1363636363636  C 49 27.0075757575758  48.6751893939394 27.7481060606061  48.0255681818182 28.3579545454545  C 47.375946969697 28.967803030303  46.5871212121212 29.2727272727273  45.6590909090909 29  L 31 29  L 31 42.8636363636364  C 31.1818181818182 43.7348484848485  30.8570075757576 44.4753787878788  30.2073863636364 45.0852272727273  C 29.5577651515152 45.6950757575758  28.7689393939394 46  27.8409090909091 46  L 21.1590909090909 46  C 20.2310606060606 46  19.4422348484849 45.6950757575758  18.7926136363636 45.0852272727273  C 18.1429924242424 44.4753787878788  17.8181818181818 43.7348484848485  18 42.8636363636364  L 18 29  L 3.34090909090909 29  C 2.41287878787879 29.2727272727273  1.62405303030303 28.967803030303  0.974431818181818 28.3579545454545  C 0.324810606060606 27.7481060606061  0 27.0075757575758  0 26.1363636363636  L 0 19.8636363636364  C 0 18.9924242424242  0.324810606060606 18.2518939393939  0.974431818181818 17.6420454545455  C 1.62405303030303 17.032196969697  2.41287878787879 16.7272727272727  3.34090909090909 17  L 18 17  L 18 3.13636363636364  C 17.8181818181818 2.26515151515151  18.1429924242424 1.52462121212121  18.7926136363636 0.914772727272728  C 19.4422348484849 0.304924242424241  20.2310606060606 0  21.1590909090909 0  L 27.8409090909091 0  C 28.7689393939394 0  29.5577651515152 0.304924242424241  30.2073863636364 0.914772727272728  C 30.8570075757576 1.52462121212121  31.1818181818182 2.26515151515151  31 3.13636363636364  L 31 17  L 45.6590909090909 17  C 46.5871212121212 16.7272727272727  47.375946969697 17.032196969697  48.0255681818182 17.6420454545455  Z " fill-rule="nonzero" fill="#000000" stroke="none" transform="matrix(1 0 0 1 301 231 )" />
  </g>
</svg>