<?xml version="1.0" encoding="utf-8"?>
<svg version="1.1" xmlns:xlink="http://www.w3.org/1999/xlink" width="22px" height="21px" xmlns="http://www.w3.org/2000/svg">
  <g transform="matrix(1 0 0 1 -340 -103 )">
    <path d="M 14.8076923076923 15.97265625  C 14.8076923076923 16.07421875  14.7680288461538 16.16015625  14.6887019230769 16.23046875  L 14.0805288461538 16.76953125  C 14.0012019230769 16.83984375  13.9042467948718 16.875  13.7896634615385 16.875  C 13.6750801282051 16.875  13.5737179487179 16.83984375  13.4855769230769 16.76953125  L 11 14.5546875  L 8.51442307692308 16.76953125  C 8.42628205128205 16.83984375  8.32491987179487 16.875  8.21033653846154 16.875  C 8.0957532051282 16.875  7.99879807692308 16.83984375  7.91947115384615 16.76953125  L 7.31129807692308 16.23046875  C 7.23197115384615 16.16015625  7.19230769230769 16.07421875  7.19230769230769 15.97265625  C 7.19230769230769 15.87109375  7.23197115384615 15.78125  7.31129807692308 15.703125  L 9.81009615384616 13.5  L 7.31129807692308 11.296875  C 7.23197115384615 11.21875  7.19230769230769 11.12890625  7.19230769230769 11.02734375  C 7.19230769230769 10.92578125  7.23197115384615 10.83984375  7.31129807692308 10.76953125  L 7.91947115384615 10.23046875  C 7.99879807692308 10.16015625  8.0957532051282 10.125  8.21033653846154 10.125  C 8.32491987179487 10.125  8.42628205128205 10.16015625  8.51442307692308 10.23046875  L 11 12.43359375  L 13.4855769230769 10.23046875  C 13.5737179487179 10.16015625  13.6750801282051 10.125  13.7896634615385 10.125  C 13.9042467948718 10.125  14.0012019230769 10.16015625  14.0805288461538 10.23046875  L 14.6887019230769 10.76953125  C 14.7680288461538 10.83984375  14.8076923076923 10.92578125  14.8076923076923 11.02734375  C 14.8076923076923 11.12890625  14.7680288461538 11.21875  14.6887019230769 11.296875  L 12.203125 13.5  L 14.6887019230769 15.703125  C 14.7680288461538 15.78125  14.8076923076923 15.87109375  14.8076923076923 15.97265625  Z M 2 7.5  L 2 19.5  L 20 19.5  L 20 7.5  L 2 7.5  Z M 6.65024038461539 5.51953125  C 6.72956730769231 5.44921875  6.76923076923077 5.359375  6.76923076923077 5.25  L 6.76923076923077 1.875  C 6.76923076923077 1.765625  6.72956730769231 1.67578125  6.65024038461539 1.60546875  C 6.57091346153846 1.53515625  6.46955128205128 1.5  6.34615384615385 1.5  L 5.5 1.5  C 5.37660256410256 1.5  5.27524038461539 1.53515625  5.19591346153846 1.60546875  C 5.11658653846154 1.67578125  5.07692307692308 1.765625  5.07692307692308 1.875  L 5.07692307692308 5.25  C 5.07692307692308 5.359375  5.11658653846154 5.44921875  5.19591346153846 5.51953125  C 5.27524038461539 5.58984375  5.37660256410256 5.625  5.5 5.625  L 6.34615384615385 5.625  C 6.46955128205128 5.625  6.57091346153846 5.58984375  6.65024038461539 5.51953125  Z M 16.8040865384615 5.51953125  C 16.8834134615385 5.44921875  16.9230769230769 5.359375  16.9230769230769 5.25  L 16.9230769230769 1.875  C 16.9230769230769 1.765625  16.8834134615385 1.67578125  16.8040865384615 1.60546875  C 16.7247596153846 1.53515625  16.6233974358974 1.5  16.5 1.5  L 15.6538461538462 1.5  C 15.5304487179487 1.5  15.4290865384615 1.53515625  15.3497596153846 1.60546875  C 15.2704326923077 1.67578125  15.2307692307692 1.765625  15.2307692307692 1.875  L 15.2307692307692 5.25  C 15.2307692307692 5.359375  15.2704326923077 5.44921875  15.3497596153846 5.51953125  C 15.4290865384615 5.58984375  15.5304487179487 5.625  15.6538461538462 5.625  L 16.5 5.625  C 16.6233974358974 5.625  16.7247596153846 5.58984375  16.8040865384615 5.51953125  Z M 21.4975961538462 3.4453125  C 21.8325320512821 3.7421875  22 4.09375  22 4.5  L 22 19.5  C 22 19.90625  21.8325320512821 20.2578125  21.4975961538462 20.5546875  C 21.1626602564103 20.8515625  20.7660256410256 21  20.3076923076923 21  L 1.69230769230769 21  C 1.23397435897436 21  0.837339743589744 20.8515625  0.502403846153846 20.5546875  C 0.167467948717949 20.2578125  0 19.90625  0 19.5  L 0 4.5  C 0 4.09375  0.167467948717949 3.7421875  0.502403846153846 3.4453125  C 0.837339743589744 3.1484375  1.23397435897436 3  1.69230769230769 3  L 3.38461538461539 3  L 3.38461538461539 1.875  C 3.38461538461539 1.359375  3.59174679487179 0.917968749999999  4.00600961538461 0.550781250000001  C 4.42027243589744 0.18359375  4.91826923076923 0  5.5 0  L 6.34615384615385 0  C 6.92788461538461 0  7.42588141025641 0.18359375  7.84014423076923 0.550781250000001  C 8.25440705128205 0.917968749999999  8.46153846153846 1.359375  8.46153846153846 1.875  L 8.46153846153846 3  L 13.5384615384615 3  L 13.5384615384615 1.875  C 13.5384615384615 1.359375  13.7455929487179 0.917968749999999  14.1598557692308 0.550781250000001  C 14.5741185897436 0.18359375  15.0721153846154 0  15.6538461538462 0  L 16.5 0  C 17.0817307692308 0  17.5797275641026 0.18359375  17.9939903846154 0.550781250000001  C 18.4082532051282 0.917968749999999  18.6153846153846 1.359375  18.6153846153846 1.875  L 18.6153846153846 3  L 20.3076923076923 3  C 20.7660256410256 3  21.1626602564103 3.1484375  21.4975961538462 3.4453125  Z " fill-rule="nonzero" fill="#000000" stroke="none" transform="matrix(1 0 0 1 340 103 )" />
  </g>
</svg>