<?xml version="1.0" encoding="utf-8"?>
<svg version="1.1" xmlns:xlink="http://www.w3.org/1999/xlink" width="12px" height="13px" xmlns="http://www.w3.org/2000/svg">
  <g transform="matrix(1 0 0 1 -151 -63 )">
    <path d="M 6.8046875 8.87825520833333  C 6.8515625 8.92903645833333  6.875 8.99392361111111  6.875 9.07291666666667  L 6.875 10.4270833333333  C 6.875 10.5060763888889  6.8515625 10.5709635416667  6.8046875 10.6217447916667  C 6.7578125 10.6725260416667  6.69791666666667 10.6979166666667  6.625 10.6979166666667  L 5.375 10.6979166666667  C 5.30208333333333 10.6979166666667  5.2421875 10.6725260416667  5.1953125 10.6217447916667  C 5.1484375 10.5709635416667  5.125 10.5060763888889  5.125 10.4270833333333  L 5.125 9.07291666666667  C 5.125 8.99392361111111  5.1484375 8.92903645833333  5.1953125 8.87825520833333  C 5.2421875 8.82747395833333  5.30208333333333 8.80208333333333  5.375 8.80208333333333  L 6.625 8.80208333333333  C 6.69791666666667 8.80208333333333  6.7578125 8.82747395833333  6.8046875 8.87825520833333  Z M 8.01953125 3.0595703125  C 8.58984375 3.56456163194444  8.875 4.16970486111111  8.875 4.875  C 8.875 5.15711805555556  8.8359375 5.41102430555556  8.7578125 5.63671875  C 8.6796875 5.86241319444444  8.56119791666667 6.05707465277778  8.40234375 6.220703125  C 8.24348958333333 6.38433159722222  8.10807291666667 6.50846354166667  7.99609375 6.59309895833333  C 7.88411458333333 6.677734375  7.72916666666667 6.779296875  7.53125 6.89778645833333  C 7.36458333333333 6.99934895833333  7.24348958333333 7.07834201388889  7.16796875 7.134765625  C 7.09244791666667 7.19118923611111  7.02473958333333 7.25889756944444  6.96484375 7.337890625  C 6.90494791666667 7.41688368055556  6.875 7.49869791666667  6.875 7.58333333333333  L 6.875 7.85416666666667  C 6.875 7.93315972222222  6.8515625 7.998046875  6.8046875 8.048828125  C 6.7578125 8.099609375  6.69791666666667 8.125  6.625 8.125  L 5.375 8.125  C 5.30208333333333 8.125  5.2421875 8.099609375  5.1953125 8.048828125  C 5.1484375 7.998046875  5.125 7.93315972222222  5.125 7.85416666666667  L 5.125 7.27864583333333  C 5.125 7.08116319444444  5.15234375 6.89919704861111  5.20703125 6.73274739583333  C 5.26171875 6.56629774305556  5.32421875 6.43229166666667  5.39453125 6.33072916666667  C 5.46484375 6.22916666666667  5.56640625 6.12901475694444  5.69921875 6.0302734375  C 5.83203125 5.93153211805556  5.93880208333333 5.85959201388889  6.01953125 5.814453125  C 6.10026041666667 5.76931423611111  6.21614583333333 5.71006944444444  6.3671875 5.63671875  C 6.64322916666667 5.49565972222222  6.83854166666667 5.37434895833333  6.953125 5.27278645833333  C 7.06770833333333 5.17122395833333  7.125 5.03298611111111  7.125 4.85807291666667  C 7.125 4.62109375  7.01171875 4.41937934027778  6.78515625 4.2529296875  C 6.55859375 4.08648003472222  6.30989583333333 4.00325520833333  6.0390625 4.00325520833333  C 5.74739583333333 4.00325520833333  5.5 4.07942708333333  5.296875 4.23177083333333  C 5.14583333333333 4.34461805555556  4.9375 4.57877604166667  4.671875 4.93424479166667  C 4.625 5.001953125  4.55989583333333 5.03580729166667  4.4765625 5.03580729166667  C 4.41927083333333 5.03580729166667  4.36979166666667 5.01888020833333  4.328125 4.98502604166667  L 3.484375 4.291015625  C 3.43229166666667 4.25151909722222  3.40104166666667 4.19509548611111  3.390625 4.12174479166667  C 3.38020833333333 4.04839409722222  3.39322916666667 3.98350694444444  3.4296875 3.92708333333333  C 4.06510416666667 2.84375  4.97395833333333 2.30208333333333  6.15625 2.30208333333333  C 6.828125 2.30208333333333  7.44921875 2.55457899305555  8.01953125 3.0595703125  Z M 7.94140625 1.51497395833333  C 7.32421875 1.22721354166667  6.67708333333333 1.08333333333333  6 1.08333333333333  C 5.32291666666667 1.08333333333333  4.67578125 1.22721354166667  4.05859375 1.51497395833333  C 3.44140625 1.802734375  2.91015625 2.18782552083333  2.46484375 2.67024739583333  C 2.01953125 3.15266927083333  1.6640625 3.72819010416667  1.3984375 4.39680989583333  C 1.1328125 5.0654296875  1 5.76649305555556  1 6.5  C 1 7.23350694444444  1.1328125 7.9345703125  1.3984375 8.60319010416667  C 1.6640625 9.27180989583333  2.01953125 9.84733072916667  2.46484375 10.3297526041667  C 2.91015625 10.8121744791667  3.44140625 11.197265625  4.05859375 11.4850260416667  C 4.67578125 11.7727864583333  5.32291666666667 11.9166666666667  6 11.9166666666667  C 6.67708333333333 11.9166666666667  7.32421875 11.7727864583333  7.94140625 11.4850260416667  C 8.55859375 11.197265625  9.08984375 10.8121744791667  9.53515625 10.3297526041667  C 9.98046875 9.84733072916667  10.3359375 9.27180989583333  10.6015625 8.60319010416667  C 10.8671875 7.9345703125  11 7.23350694444444  11 6.5  C 11 5.76649305555556  10.8671875 5.0654296875  10.6015625 4.39680989583333  C 10.3359375 3.72819010416667  9.98046875 3.15266927083333  9.53515625 2.67024739583333  C 9.08984375 2.18782552083333  8.55859375 1.802734375  7.94140625 1.51497395833333  Z M 11.1953125 3.2373046875  C 11.7317708333333 4.23318142361111  12 5.32074652777778  12 6.5  C 12 7.67925347222222  11.7317708333333 8.76681857638889  11.1953125 9.7626953125  C 10.6588541666667 10.7585720486111  9.93098958333333 11.5470920138889  9.01171875 12.1282552083333  C 8.09244791666667 12.7094184027778  7.08854166666667 13  6 13  C 4.91145833333333 13  3.90755208333333 12.7094184027778  2.98828125 12.1282552083333  C 2.06901041666667 11.5470920138889  1.34114583333333 10.7585720486111  0.8046875 9.7626953125  C 0.268229166666667 8.76681857638889  0 7.67925347222222  0 6.5  C 0 5.32074652777778  0.268229166666667 4.23318142361111  0.8046875 3.2373046875  C 1.34114583333333 2.24142795138889  2.06901041666667 1.45290798611111  2.98828125 0.871744791666666  C 3.90755208333333 0.290581597222221  4.91145833333333 0  6 0  C 7.08854166666667 0  8.09244791666667 0.290581597222221  9.01171875 0.871744791666666  C 9.93098958333333 1.45290798611111  10.6588541666667 2.24142795138889  11.1953125 3.2373046875  Z " fill-rule="nonzero" fill="#000000" stroke="none" transform="matrix(1 0 0 1 151 63 )" />
  </g>
</svg>