<?xml version="1.0" encoding="utf-8"?>
<svg version="1.1" xmlns:xlink="http://www.w3.org/1999/xlink" width="44px" height="44px" xmlns="http://www.w3.org/2000/svg">
  <g transform="matrix(1 0 0 1 -1121 -468 )">
    <path d="M 1143 468  C 1155.32 468  1165 477.68  1165 490  C 1165 502.32  1155.32 512  1143 512  C 1130.68 512  1121 502.32  1121 490  C 1121 477.68  1130.68 468  1143 468  Z " fill-rule="nonzero" fill="#ffffff" stroke="none" />
    <path d="M 1143 468.5  C 1155.04 468.5  1164.5 477.96  1164.5 490  C 1164.5 502.04  1155.04 511.5  1143 511.5  C 1130.96 511.5  1121.5 502.04  1121.5 490  C 1121.5 477.96  1130.96 468.5  1143 468.5  Z " stroke-width="1" stroke="#ffffff" fill="none" />
  </g>
</svg>