<?xml version="1.0" encoding="utf-8"?>
<svg version="1.1" xmlns:xlink="http://www.w3.org/1999/xlink" width="72px" height="72px" xmlns="http://www.w3.org/2000/svg">
  <g transform="matrix(1 0 0 1 -1107 -454 )">
    <path d="M 1139.93164339028 454.632851574462  C 1140.95195577199 454.544332075011  1141.97569884216 454.5  1143 454.5  C 1162.60610861899 454.5  1178.5 470.393891381007  1178.5 490  C 1178.5 509.606108618993  1162.60610861899 525.5  1143 525.5  C 1123.39389138101 525.5  1107.5 509.606108618993  1107.5 490  C 1107.5 483.935197654085  1109.05371061054 477.974383527166  1112.00914695025 472.684772918508  L 1142.75 490.433012701892  A 0.5 0.5 0 0 0 1143.49747076072 489.949772097104 L 1139.93164339024 454.632851574466  Z " fill-rule="nonzero" fill="#0096fa" stroke="none" />
    <path d="M 1139.93164339028 454.632851574462  C 1140.95195577199 454.544332075011  1141.97569884216 454.5  1143 454.5  C 1162.60610861899 454.5  1178.5 470.393891381007  1178.5 490  C 1178.5 509.606108618993  1162.60610861899 525.5  1143 525.5  C 1123.39389138101 525.5  1107.5 509.606108618993  1107.5 490  C 1107.5 483.935197654085  1109.05371061054 477.974383527166  1112.00914695025 472.684772918508  L 1142.75 490.433012701892  A 0.5 0.5 0 0 0 1143.49747076072 489.949772097104 L 1139.93164339024 454.632851574466  Z " stroke-width="1" stroke="#ffffff" fill="none" />
  </g>
</svg>