<?xml version="1.0" encoding="utf-8"?>
<svg version="1.1" xmlns:xlink="http://www.w3.org/1999/xlink" width="210px" height="199px" xmlns="http://www.w3.org/2000/svg">
  <defs>
    <mask fill="white" id="clip365">
      <path d="M 210 160.661641005954  C 210 160.661641005954  121.460590738788 77.4673440618119  121.460590738788 77.4673440618119  C 121.460590738788 77.4673440618119  27.8752272331037 0  27.8752272331037 0  C -13.9361701015182 50.5718475560812  -8.06437106143179 125.225226206245  41.1386593889638 168.629753193599  C 90.3416898393593 212.034280180953  165.097593594596 208.506750281835  210 160.661641005954  Z " fill-rule="evenodd" />
    </mask>
  </defs>
  <g transform="matrix(1 0 0 1 -965 -2414 )">
    <path d="M 210 160.661641005954  C 210 160.661641005954  121.460590738788 77.4673440618119  121.460590738788 77.4673440618119  C 121.460590738788 77.4673440618119  27.8752272331037 0  27.8752272331037 0  C -13.9361701015182 50.5718475560812  -8.06437106143179 125.225226206245  41.1386593889638 168.629753193599  C 90.3416898393593 212.034280180953  165.097593594596 208.506750281835  210 160.661641005954  Z " fill-rule="nonzero" fill="#5ad8a6" stroke="none" transform="matrix(1 0 0 1 965 2414 )" />
    <path d="M 210 160.661641005954  C 210 160.661641005954  121.460590738788 77.4673440618119  121.460590738788 77.4673440618119  C 121.460590738788 77.4673440618119  27.8752272331037 0  27.8752272331037 0  C -13.9361701015182 50.5718475560812  -8.06437106143179 125.225226206245  41.1386593889638 168.629753193599  C 90.3416898393593 212.034280180953  165.097593594596 208.506750281835  210 160.661641005954  Z " stroke-width="2" stroke="#797979" fill="none" transform="matrix(1 0 0 1 965 2414 )" mask="url(#clip365)" />
  </g>
</svg>