<?xml version="1.0" encoding="utf-8"?>
<svg version="1.1" xmlns:xlink="http://www.w3.org/1999/xlink" width="93px" height="120px" xmlns="http://www.w3.org/2000/svg">
  <defs>
    <mask fill="white" id="clip366">
      <path d="M 76.0938709304328 0.153666898318617  L 77.2139042352591 0  C 77.2139042352591 0  82.8959083885705 44.5439767857199  82.8959083885705 44.5439767857199  C 89.2319865348334 93.9527173186049  92.6000170719766 119.104725056698  93 120  C 93 120  0 42.8526115123438  0 42.8526115123438  C 19.3005675448552 19.4582075669454  46.5116048828002 4.3539852942468  76.0938709304328 0.153666898318642  Z " fill-rule="evenodd" />
    </mask>
  </defs>
  <g transform="matrix(1 0 0 1 -993 -2371 )">
    <path d="M 76.0938709304328 0.153666898318617  L 77.2139042352591 0  C 77.2139042352591 0  82.8959083885705 44.5439767857199  82.8959083885705 44.5439767857199  C 89.2319865348334 93.9527173186049  92.6000170719766 119.104725056698  93 120  C 93 120  0 42.8526115123438  0 42.8526115123438  C 19.3005675448552 19.4582075669454  46.5116048828002 4.3539852942468  76.0938709304328 0.153666898318642  Z " fill-rule="nonzero" fill="#5d7092" stroke="none" transform="matrix(1 0 0 1 993 2371 )" />
    <path d="M 76.0938709304328 0.153666898318617  L 77.2139042352591 0  C 77.2139042352591 0  82.8959083885705 44.5439767857199  82.8959083885705 44.5439767857199  C 89.2319865348334 93.9527173186049  92.6000170719766 119.104725056698  93 120  C 93 120  0 42.8526115123438  0 42.8526115123438  C 19.3005675448552 19.4582075669454  46.5116048828002 4.3539852942468  76.0938709304328 0.153666898318642  Z " stroke-width="2" stroke="#797979" fill="none" transform="matrix(1 0 0 1 993 2371 )" mask="url(#clip366)" />
  </g>
</svg>