<?xml version="1.0" encoding="utf-8"?>
<svg version="1.1" xmlns:xlink="http://www.w3.org/1999/xlink" width="121px" height="204px" xmlns="http://www.w3.org/2000/svg">
  <defs>
    <mask fill="white" id="clip364">
      <path d="M 0 0  C 0 0  0 121.100792659363  0 121.100792659363  C 0 121.100792659363  88.2032109180212 204  88.2032109180212 204  C 121.231107817969 168.798767496067  130.207315490186 117.323408734971  111.04580056694 73.0058719507906  C 91.8842856436936 28.6883351666106  48.2478073662164 0  0 0  Z " fill-rule="evenodd" />
    </mask>
  </defs>
  <g transform="matrix(1 0 0 1 -1086 -2370 )">
    <path d="M 0 0  C 0 0  0 121.100792659363  0 121.100792659363  C 0 121.100792659363  88.2032109180212 204  88.2032109180212 204  C 121.231107817969 168.798767496067  130.207315490186 117.323408734971  111.04580056694 73.0058719507906  C 91.8842856436936 28.6883351666106  48.2478073662164 0  0 0  Z " fill-rule="nonzero" fill="#5b8ff9" stroke="none" transform="matrix(1 0 0 1 1086 2370 )" />
    <path d="M 0 0  C 0 0  0 121.100792659363  0 121.100792659363  C 0 121.100792659363  88.2032109180212 204  88.2032109180212 204  C 121.231107817969 168.798767496067  130.207315490186 117.323408734971  111.04580056694 73.0058719507906  C 91.8842856436936 28.6883351666106  48.2478073662164 0  0 0  Z " stroke-width="2" stroke="#797979" fill="none" transform="matrix(1 0 0 1 1086 2370 )" mask="url(#clip364)" />
  </g>
</svg>