<?xml version="1.0" encoding="utf-8"?>
<svg version="1.1" xmlns:xlink="http://www.w3.org/1999/xlink" width="16px" height="121px" xmlns="http://www.w3.org/2000/svg">
  <defs>
    <mask fill="white" id="clip322">
      <path d="M 0 1.04121406929649  C 15.516441069718 121.689231360704  15.9999952931925 120.996039974355  15.9999952931925 120.996039974355  C 15.9999952931925 120.996039974355  16 0  16 0  C 10.6150201672369 0  5.27154437417964 0.351798046410384  0 1.04121406929649  Z " fill-rule="evenodd" />
    </mask>
  </defs>
  <g transform="matrix(1 0 0 1 -1071 -2370 )">
    <path d="M 0 1.04121406929649  C 15.516441069718 121.689231360704  15.9999952931925 120.996039974355  15.9999952931925 120.996039974355  C 15.9999952931925 120.996039974355  16 0  16 0  C 10.6150201672369 0  5.27154437417964 0.351798046410384  0 1.04121406929649  Z " fill-rule="nonzero" fill="#f6bd16" stroke="none" transform="matrix(1 0 0 1 1071 2370 )" />
    <path d="M 0 1.04121406929649  C 15.516441069718 121.689231360704  15.9999952931925 120.996039974355  15.9999952931925 120.996039974355  C 15.9999952931925 120.996039974355  16 0  16 0  C 10.6150201672369 0  5.27154437417964 0.351798046410384  0 1.04121406929649  Z " stroke-width="2" stroke="#797979" fill="none" transform="matrix(1 0 0 1 1071 2370 )" mask="url(#clip322)" />
  </g>
</svg>