<?xml version="1.0" encoding="utf-8"?>
<svg version="1.1" xmlns:xlink="http://www.w3.org/1999/xlink" width="30px" height="30px" xmlns="http://www.w3.org/2000/svg">
  <g transform="matrix(1 0 0 1 -253 -9 )">
    <path d="M 268 10  C 275.84 10  282 16.16  282 24  C 282 31.84  275.84 38  268 38  C 260.16 38  254 31.84  254 24  C 254 16.16  260.16 10  268 10  Z " fill-rule="nonzero" fill="#ffffff" stroke="none" />
    <path d="M 268 10  C 275.84 10  282 16.16  282 24  C 282 31.84  275.84 38  268 38  C 260.16 38  254 31.84  254 24  C 254 16.16  260.16 10  268 10  Z " stroke-width="2" stroke="#1abc9c" fill="none" />
  </g>
</svg>