<?xml version="1.0" encoding="utf-8"?>
<svg version="1.1" xmlns:xlink="http://www.w3.org/1999/xlink" width="30px" height="30px" xmlns="http://www.w3.org/2000/svg">
  <g transform="matrix(1 0 0 1 -455 -9 )">
    <path d="M 470 10  C 477.84 10  484 16.16  484 24  C 484 31.84  477.84 38  470 38  C 462.16 38  456 31.84  456 24  C 456 16.16  462.16 10  470 10  Z " fill-rule="nonzero" fill="#ffffff" stroke="none" />
    <path d="M 470 10  C 477.84 10  484 16.16  484 24  C 484 31.84  477.84 38  470 38  C 462.16 38  456 31.84  456 24  C 456 16.16  462.16 10  470 10  Z " stroke-width="2" stroke="#e4e4e4" fill="none" />
  </g>
</svg>