<?xml version="1.0" encoding="utf-8"?>
<svg version="1.1" xmlns:xlink="http://www.w3.org/1999/xlink" width="39px" height="31px" xmlns="http://www.w3.org/2000/svg">
  <g transform="matrix(1 0 0 1 -353 -307 )">
    <path d="M 32.017578125 17.6998697916667  C 32.3391927083333 17.4442274305556  32.5 17.1414930555556  32.5 16.7916666666667  L 32.5 14.2083333333333  C 32.5 13.8585069444444  32.3391927083333 13.5557725694444  32.017578125 13.3001302083333  C 31.6959635416667 13.0444878472222  31.3151041666667 12.9166666666667  30.875 13  L 18.12890625 13  L 22.927734375 9.10221354166667  C 23.2493489583333 8.84657118055555  23.41015625 8.54383680555555  23.41015625 8.19401041666667  C 23.41015625 7.84418402777777  23.2493489583333 7.54144965277777  22.927734375 7.28580729166667  L 20.6171875 5.44921875  C 20.3125 5.20703125  19.931640625 5.0859375  19.474609375 5.0859375  C 19.017578125 5.0859375  18.63671875 5.20703125  18.33203125 5.44921875  L 9.140625 12.7552083333333  L 6.830078125 14.591796875  C 6.525390625 14.833984375  6.373046875 15.13671875  6.373046875 15.5  C 6.373046875 15.86328125  6.525390625 16.166015625  6.830078125 16.408203125  L 9.140625 18.2447916666667  L 18.33203125 25.55078125  C 18.63671875 25.79296875  19.017578125 25.9140625  19.474609375 25.9140625  C 19.931640625 25.9140625  20.3125 25.79296875  20.6171875 25.55078125  L 22.927734375 23.7141927083333  C 23.232421875 23.4720052083333  23.384765625 23.1692708333333  23.384765625 22.8059895833333  C 23.384765625 22.4427083333333  23.232421875 22.1399739583333  22.927734375 21.8977864583333  L 18.12890625 18  L 30.875 18  C 31.3151041666667 18.0833333333333  31.6959635416667 17.9555121527778  32.017578125 17.6998697916667  Z M 36.384765625 7.7197265625  C 38.1282552083333 10.0945095486111  39 12.6879340277778  39 15.5  C 39 18.3120659722222  38.1282552083333 20.9054904513889  36.384765625 23.2802734375  C 34.6412760416667 25.6550564236111  32.2757161458333 27.5353732638889  29.2880859375 28.9212239583333  C 26.3004557291667 30.3070746527778  23.0377604166667 31  19.5 31  C 15.9622395833333 31  12.6995442708333 30.3070746527778  9.7119140625 28.9212239583333  C 6.72428385416667 27.5353732638889  4.35872395833333 25.6550564236111  2.615234375 23.2802734375  C 0.871744791666667 20.9054904513889  0 18.3120659722222  0 15.5  C 0 12.6879340277778  0.871744791666667 10.0945095486111  2.615234375 7.7197265625  C 4.35872395833333 5.34494357638889  6.72428385416667 3.46462673611111  9.7119140625 2.07877604166667  C 12.6995442708333 0.69292534722222  15.9622395833333 0  19.5 0  C 23.0377604166667 0  26.3004557291667 0.69292534722222  29.2880859375 2.07877604166667  C 32.2757161458333 3.46462673611111  34.6412760416667 5.34494357638889  36.384765625 7.7197265625  Z " fill-rule="nonzero" fill="#1abc9c" stroke="none" transform="matrix(1 0 0 1 353 307 )" />
  </g>
</svg>