<?xml version="1.0" encoding="utf-8"?>
<svg version="1.1" xmlns:xlink="http://www.w3.org/1999/xlink" width="39px" height="38px" xmlns="http://www.w3.org/2000/svg">
  <g transform="matrix(1 0 0 1 -388 -325 )">
    <path d="M 32.169921875 20.11328125  C 32.474609375 19.81640625  32.626953125 19.4453125  32.626953125 19  C 32.626953125 18.5546875  32.474609375 18.18359375  32.169921875 17.88671875  L 29.859375 15.6354166666667  L 20.66796875 6.6796875  C 20.36328125 6.3828125  19.982421875 6.234375  19.525390625 6.234375  C 19.068359375 6.234375  18.6875 6.3828125  18.3828125 6.6796875  L 16.072265625 8.93098958333333  C 15.767578125 9.22786458333333  15.615234375 9.59895833333333  15.615234375 10.0442708333333  C 15.615234375 10.4895833333333  15.767578125 10.8606770833333  16.072265625 11.1575520833333  L 20.87109375 16  L 8.125 16  C 7.68489583333333 15.8333333333333  7.30403645833333 15.9900173611111  6.982421875 16.3033854166667  C 6.66080729166667 16.6167534722222  6.5 16.9878472222222  6.5 17.4166666666667  L 6.5 20.5833333333333  C 6.5 21.0121527777778  6.66080729166667 21.3832465277778  6.982421875 21.6966145833333  C 7.30403645833333 22.0099826388889  7.68489583333333 22.1666666666667  8.125 22  L 20.87109375 22  L 16.072265625 26.8424479166667  C 15.7506510416667 27.1558159722222  15.58984375 27.5269097222222  15.58984375 27.9557291666667  C 15.58984375 28.3845486111111  15.7506510416667 28.7556423611111  16.072265625 29.0690104166667  L 18.3828125 31.3203125  C 18.6875 31.6171875  19.068359375 31.765625  19.525390625 31.765625  C 19.982421875 31.765625  20.36328125 31.6171875  20.66796875 31.3203125  L 29.859375 22.3645833333333  L 32.169921875 20.11328125  Z M 36.384765625 9.462890625  C 38.1282552083333 12.3739149305556  39 15.5529513888889  39 19  C 39 22.4470486111111  38.1282552083333 25.6260850694444  36.384765625 28.537109375  C 34.6412760416667 31.4481336805556  32.2757161458333 33.7530381944444  29.2880859375 35.4518229166667  C 26.3004557291667 37.1506076388889  23.0377604166667 38  19.5 38  C 15.9622395833333 38  12.6995442708333 37.1506076388889  9.7119140625 35.4518229166667  C 6.72428385416667 33.7530381944444  4.35872395833333 31.4481336805556  2.615234375 28.537109375  C 0.871744791666667 25.6260850694444  0 22.4470486111111  0 19  C 0 15.5529513888889  0.871744791666667 12.3739149305556  2.615234375 9.462890625  C 4.35872395833333 6.55186631944444  6.72428385416667 4.24696180555555  9.7119140625 2.54817708333333  C 12.6995442708333 0.849392361111108  15.9622395833333 0  19.5 0  C 23.0377604166667 0  26.3004557291667 0.849392361111108  29.2880859375 2.54817708333333  C 32.2757161458333 4.24696180555555  34.6412760416667 6.55186631944444  36.384765625 9.462890625  Z " fill-rule="nonzero" fill="#1abc9c" stroke="none" transform="matrix(1 0 0 1 388 325 )" />
  </g>
</svg>